<?xml version="1.0" encoding="UTF-8" standalone="no"?>
<!DOCTYPE svg PUBLIC "-//W3C//DTD SVG 1.1//EN"
 "http://www.w3.org/Graphics/SVG/1.1/DTD/svg11.dtd">
<!-- Generated by graphviz version 2.44.1 (20200629.0846)
 -->
<!-- Title: dependencies Pages: 1 -->
<svg width="1370pt" height="284pt"
 viewBox="0.00 0.00 1370.00 284.00" xmlns="http://www.w3.org/2000/svg" xmlns:xlink="http://www.w3.org/1999/xlink">
<g id="graph0" class="graph" transform="scale(1 1) rotate(0) translate(4 280)">
<title>dependencies</title>
<polygon fill="white" stroke="transparent" points="-4,4 -4,-280 1366,-280 1366,4 -4,4"/>
<text text-anchor="start" x="660.01" y="-42.4" font-family="sans-serif" font-weight="bold" font-size="14.00">Legend</text>
<polygon fill="#ffffb3" stroke="transparent" points="447,-10 447,-30 467,-30 467,-10 447,-10"/>
<text text-anchor="start" x="470.63" y="-15.4" font-family="sans-serif" font-size="14.00"> &#160;Declarations</text>
<polygon fill="#8dd3c7" stroke="transparent" points="560,-10 560,-30 580,-30 580,-10 560,-10"/>
<text text-anchor="start" x="583.73" y="-15.4" font-family="sans-serif" font-size="14.00"> &#160;Module</text>
<polygon fill="#80b1d3" stroke="transparent" points="646,-10 646,-30 666,-30 666,-10 646,-10"/>
<text text-anchor="start" x="669.78" y="-15.4" font-family="sans-serif" font-size="14.00"> &#160;Bootstrap</text>
<polygon fill="#fdb462" stroke="transparent" points="743,-10 743,-30 763,-30 763,-10 743,-10"/>
<text text-anchor="start" x="766.67" y="-15.4" font-family="sans-serif" font-size="14.00"> &#160;Providers</text>
<polygon fill="#fb8072" stroke="transparent" points="839,-10 839,-30 859,-30 859,-10 839,-10"/>
<text text-anchor="start" x="862.73" y="-15.4" font-family="sans-serif" font-size="14.00"> &#160;Exports</text>
<g id="clust1" class="cluster">
<title>cluster_SharedModule</title>
<polygon fill="none" stroke="black" stroke-dasharray="1,5" points="8,-70 8,-268 1354,-268 1354,-70 8,-70"/>
</g>
<g id="clust2" class="cluster">
<title>cluster_SharedModule_declarations</title>
<polygon fill="none" stroke="black" points="452,-78 452,-130 1346,-130 1346,-78 452,-78"/>
</g>
<g id="clust9" class="cluster">
<title>cluster_SharedModule_exports</title>
<polygon fill="none" stroke="black" points="44,-208 44,-260 1237,-260 1237,-208 44,-208"/>
</g>
<g id="clust8" class="cluster">
<title>cluster_SharedModule_imports</title>
<polygon fill="none" stroke="black" points="16,-78 16,-130 444,-130 444,-78 16,-78"/>
</g>
<!-- AddContactsComponent -->
<g id="node1" class="node">
<title>AddContactsComponent</title>
<polygon fill="#ffffb3" stroke="black" points="1338.43,-122 1183.57,-122 1183.57,-86 1338.43,-86 1338.43,-122"/>
<text text-anchor="middle" x="1261" y="-99.8" font-family="Times,serif" font-size="14.00">AddContactsComponent</text>
</g>
<!-- SharedModule -->
<g id="node6" class="node">
<title>SharedModule</title>
<polygon fill="#8dd3c7" stroke="black" points="599.42,-187 596.42,-191 575.42,-191 572.42,-187 500.58,-187 500.58,-151 599.42,-151 599.42,-187"/>
<text text-anchor="middle" x="550" y="-164.8" font-family="Times,serif" font-size="14.00">SharedModule</text>
</g>
<!-- AddContactsComponent&#45;&gt;SharedModule -->
<g id="edge1" class="edge">
<title>AddContactsComponent&#45;&gt;SharedModule</title>
<path fill="none" stroke="black" d="M1206.38,-122.11C1206.38,-141.34 1206.38,-169 1206.38,-169 1206.38,-169 609.33,-169 609.33,-169"/>
<polygon fill="black" stroke="black" points="609.33,-165.5 599.33,-169 609.33,-172.5 609.33,-165.5"/>
</g>
<!-- AddToCartComponent -->
<g id="node2" class="node">
<title>AddToCartComponent</title>
<polygon fill="#ffffb3" stroke="black" points="1165.59,-122 1020.41,-122 1020.41,-86 1165.59,-86 1165.59,-122"/>
<text text-anchor="middle" x="1093" y="-99.8" font-family="Times,serif" font-size="14.00">AddToCartComponent</text>
</g>
<!-- AddToCartComponent&#45;&gt;SharedModule -->
<g id="edge2" class="edge">
<title>AddToCartComponent&#45;&gt;SharedModule</title>
<path fill="none" stroke="black" d="M1036.88,-122.3C1036.88,-140.27 1036.88,-165 1036.88,-165 1036.88,-165 609.36,-165 609.36,-165"/>
<polygon fill="black" stroke="black" points="609.36,-161.5 599.36,-165 609.36,-168.5 609.36,-161.5"/>
</g>
<!-- InvalidCredentialsComponent -->
<g id="node3" class="node">
<title>InvalidCredentialsComponent</title>
<polygon fill="#ffffb3" stroke="black" points="1002.25,-122 817.75,-122 817.75,-86 1002.25,-86 1002.25,-122"/>
<text text-anchor="middle" x="910" y="-99.8" font-family="Times,serif" font-size="14.00">InvalidCredentialsComponent</text>
</g>
<!-- InvalidCredentialsComponent&#45;&gt;SharedModule -->
<g id="edge3" class="edge">
<title>InvalidCredentialsComponent&#45;&gt;SharedModule</title>
<path fill="none" stroke="black" d="M852.02,-122.03C852.02,-138.4 852.02,-160 852.02,-160 852.02,-160 609.53,-160 609.53,-160"/>
<polygon fill="black" stroke="black" points="609.53,-156.5 599.53,-160 609.53,-163.5 609.53,-156.5"/>
</g>
<!-- LoginFirstComponent -->
<g id="node4" class="node">
<title>LoginFirstComponent</title>
<polygon fill="#ffffb3" stroke="black" points="799.45,-122 658.55,-122 658.55,-86 799.45,-86 799.45,-122"/>
<text text-anchor="middle" x="729" y="-99.8" font-family="Times,serif" font-size="14.00">LoginFirstComponent</text>
</g>
<!-- LoginFirstComponent&#45;&gt;SharedModule -->
<g id="edge4" class="edge">
<title>LoginFirstComponent&#45;&gt;SharedModule</title>
<path fill="none" stroke="black" d="M720.95,-122.19C720.95,-137.18 720.95,-156 720.95,-156 720.95,-156 609.45,-156 609.45,-156"/>
<polygon fill="black" stroke="black" points="609.45,-152.5 599.45,-156 609.45,-159.5 609.45,-152.5"/>
</g>
<!-- ShowErrorDialogComponent -->
<g id="node5" class="node">
<title>ShowErrorDialogComponent</title>
<polygon fill="#ffffb3" stroke="black" points="640.36,-122 459.64,-122 459.64,-86 640.36,-86 640.36,-122"/>
<text text-anchor="middle" x="550" y="-99.8" font-family="Times,serif" font-size="14.00">ShowErrorDialogComponent</text>
</g>
<!-- ShowErrorDialogComponent&#45;&gt;SharedModule -->
<g id="edge5" class="edge">
<title>ShowErrorDialogComponent&#45;&gt;SharedModule</title>
<path fill="none" stroke="black" d="M550,-122.11C550,-122.11 550,-140.99 550,-140.99"/>
<polygon fill="black" stroke="black" points="546.5,-140.99 550,-150.99 553.5,-140.99 546.5,-140.99"/>
</g>
<!-- AddContactsComponent  -->
<g id="node11" class="node">
<title>AddContactsComponent </title>
<polygon fill="#fb8072" stroke="black" points="1228.93,-252 1071.07,-252 1071.07,-216 1228.93,-216 1228.93,-252"/>
<text text-anchor="middle" x="1150" y="-229.8" font-family="Times,serif" font-size="14.00">AddContactsComponent </text>
</g>
<!-- SharedModule&#45;&gt;AddContactsComponent  -->
<g id="edge10" class="edge">
<title>SharedModule&#45;&gt;AddContactsComponent </title>
<path fill="none" stroke="black" stroke-dasharray="5,2" d="M599.44,-174C737.7,-174 1118.29,-174 1118.29,-174 1118.29,-174 1118.29,-206 1118.29,-206"/>
<polygon fill="black" stroke="black" points="1114.79,-206 1118.29,-216 1121.79,-206 1114.79,-206"/>
</g>
<!-- AddToCartComponent  -->
<g id="node12" class="node">
<title>AddToCartComponent </title>
<polygon fill="#fb8072" stroke="black" points="1053.09,-252 904.91,-252 904.91,-216 1053.09,-216 1053.09,-252"/>
<text text-anchor="middle" x="979" y="-229.8" font-family="Times,serif" font-size="14.00">AddToCartComponent </text>
</g>
<!-- SharedModule&#45;&gt;AddToCartComponent  -->
<g id="edge11" class="edge">
<title>SharedModule&#45;&gt;AddToCartComponent </title>
<path fill="none" stroke="black" stroke-dasharray="5,2" d="M599.48,-178C707.24,-178 953.54,-178 953.54,-178 953.54,-178 953.54,-205.97 953.54,-205.97"/>
<polygon fill="black" stroke="black" points="950.04,-205.97 953.54,-215.97 957.04,-205.97 950.04,-205.97"/>
</g>
<!-- FileModule  -->
<g id="node13" class="node">
<title>FileModule </title>
<polygon fill="#fb8072" stroke="black" points="886.33,-252 801.67,-252 801.67,-216 886.33,-216 886.33,-252"/>
<text text-anchor="middle" x="844" y="-229.8" font-family="Times,serif" font-size="14.00">FileModule </text>
</g>
<!-- SharedModule&#45;&gt;FileModule  -->
<g id="edge12" class="edge">
<title>SharedModule&#45;&gt;FileModule </title>
<path fill="none" stroke="black" stroke-dasharray="5,2" d="M599.44,-183C674.76,-183 809.61,-183 809.61,-183 809.61,-183 809.61,-205.88 809.61,-205.88"/>
<polygon fill="black" stroke="black" points="806.11,-205.88 809.61,-215.88 813.11,-205.88 806.11,-205.88"/>
</g>
<!-- InvalidCredentialsComponent  -->
<g id="node14" class="node">
<title>InvalidCredentialsComponent </title>
<polygon fill="#fb8072" stroke="black" points="783.25,-252 594.75,-252 594.75,-216 783.25,-216 783.25,-252"/>
<text text-anchor="middle" x="689" y="-229.8" font-family="Times,serif" font-size="14.00">InvalidCredentialsComponent </text>
</g>
<!-- SharedModule&#45;&gt;InvalidCredentialsComponent  -->
<g id="edge13" class="edge">
<title>SharedModule&#45;&gt;InvalidCredentialsComponent </title>
<path fill="none" stroke="black" stroke-dasharray="5,2" d="M586.06,-187.11C586.06,-206.34 586.06,-234 586.06,-234 586.06,-234 586.93,-234 586.93,-234"/>
<polygon fill="black" stroke="black" points="584.83,-237.5 594.83,-234 584.83,-230.5 584.83,-237.5"/>
</g>
<!-- MaterialModule  -->
<g id="node15" class="node">
<title>MaterialModule </title>
<polygon fill="#fb8072" stroke="black" points="577.47,-252 466.53,-252 466.53,-216 577.47,-216 577.47,-252"/>
<text text-anchor="middle" x="522" y="-229.8" font-family="Times,serif" font-size="14.00">MaterialModule </text>
</g>
<!-- SharedModule&#45;&gt;MaterialModule  -->
<g id="edge14" class="edge">
<title>SharedModule&#45;&gt;MaterialModule </title>
<path fill="none" stroke="black" stroke-dasharray="5,2" d="M539.01,-187.11C539.01,-187.11 539.01,-205.99 539.01,-205.99"/>
<polygon fill="black" stroke="black" points="535.51,-205.99 539.01,-215.99 542.51,-205.99 535.51,-205.99"/>
</g>
<!-- MdbModule  -->
<g id="node16" class="node">
<title>MdbModule </title>
<polygon fill="#fb8072" stroke="black" points="449,-252 359,-252 359,-216 449,-216 449,-252"/>
<text text-anchor="middle" x="404" y="-229.8" font-family="Times,serif" font-size="14.00">MdbModule </text>
</g>
<!-- SharedModule&#45;&gt;MdbModule  -->
<g id="edge15" class="edge">
<title>SharedModule&#45;&gt;MdbModule </title>
<path fill="none" stroke="black" stroke-dasharray="5,2" d="M500.52,-183C472.18,-183 442.21,-183 442.21,-183 442.21,-183 442.21,-205.88 442.21,-205.88"/>
<polygon fill="black" stroke="black" points="438.71,-205.88 442.21,-215.88 445.71,-205.88 438.71,-205.88"/>
</g>
<!-- NgxModule  -->
<g id="node17" class="node">
<title>NgxModule </title>
<polygon fill="#fb8072" stroke="black" points="341.66,-252 254.34,-252 254.34,-216 341.66,-216 341.66,-252"/>
<text text-anchor="middle" x="298" y="-229.8" font-family="Times,serif" font-size="14.00">NgxModule </text>
</g>
<!-- SharedModule&#45;&gt;NgxModule  -->
<g id="edge16" class="edge">
<title>SharedModule&#45;&gt;NgxModule </title>
<path fill="none" stroke="black" stroke-dasharray="5,2" d="M500.68,-178C430.21,-178 309.13,-178 309.13,-178 309.13,-178 309.13,-205.97 309.13,-205.97"/>
<polygon fill="black" stroke="black" points="305.63,-205.97 309.13,-215.97 312.63,-205.97 305.63,-205.97"/>
</g>
<!-- ShowErrorDialogComponent  -->
<g id="node18" class="node">
<title>ShowErrorDialogComponent </title>
<polygon fill="#fb8072" stroke="black" points="236.36,-252 51.64,-252 51.64,-216 236.36,-216 236.36,-252"/>
<text text-anchor="middle" x="144" y="-229.8" font-family="Times,serif" font-size="14.00">ShowErrorDialogComponent </text>
</g>
<!-- SharedModule&#45;&gt;ShowErrorDialogComponent  -->
<g id="edge17" class="edge">
<title>SharedModule&#45;&gt;ShowErrorDialogComponent </title>
<path fill="none" stroke="black" stroke-dasharray="5,2" d="M500.71,-174C408.86,-174 220.76,-174 220.76,-174 220.76,-174 220.76,-206 220.76,-206"/>
<polygon fill="black" stroke="black" points="217.26,-206 220.76,-216 224.26,-206 217.26,-206"/>
</g>
<!-- FileModule -->
<g id="node7" class="node">
<title>FileModule</title>
<polygon fill="#8dd3c7" stroke="black" points="435.83,-122 432.83,-126 411.83,-126 408.83,-122 354.17,-122 354.17,-86 435.83,-86 435.83,-122"/>
<text text-anchor="middle" x="395" y="-99.8" font-family="Times,serif" font-size="14.00">FileModule</text>
</g>
<!-- FileModule&#45;&gt;SharedModule -->
<g id="edge6" class="edge">
<title>FileModule&#45;&gt;SharedModule</title>
<path fill="none" stroke="black" d="M397.46,-122.19C397.46,-137.18 397.46,-156 397.46,-156 397.46,-156 490.47,-156 490.47,-156"/>
<polygon fill="black" stroke="black" points="490.47,-159.5 500.47,-156 490.47,-152.5 490.47,-159.5"/>
</g>
<!-- MaterialModule -->
<g id="node8" class="node">
<title>MaterialModule</title>
<polygon fill="#8dd3c7" stroke="black" points="336.47,-122 333.47,-126 312.47,-126 309.47,-122 229.53,-122 229.53,-86 336.47,-86 336.47,-122"/>
<text text-anchor="middle" x="283" y="-99.8" font-family="Times,serif" font-size="14.00">MaterialModule</text>
</g>
<!-- MaterialModule&#45;&gt;SharedModule -->
<g id="edge7" class="edge">
<title>MaterialModule&#45;&gt;SharedModule</title>
<path fill="none" stroke="black" d="M281.78,-122.03C281.78,-138.4 281.78,-160 281.78,-160 281.78,-160 490.49,-160 490.49,-160"/>
<polygon fill="black" stroke="black" points="490.49,-163.5 500.49,-160 490.49,-156.5 490.49,-163.5"/>
</g>
<!-- MdbModule -->
<g id="node9" class="node">
<title>MdbModule</title>
<polygon fill="#8dd3c7" stroke="black" points="211.99,-122 208.99,-126 187.99,-126 184.99,-122 126.01,-122 126.01,-86 211.99,-86 211.99,-122"/>
<text text-anchor="middle" x="169" y="-99.8" font-family="Times,serif" font-size="14.00">MdbModule</text>
</g>
<!-- MdbModule&#45;&gt;SharedModule -->
<g id="edge8" class="edge">
<title>MdbModule&#45;&gt;SharedModule</title>
<path fill="none" stroke="black" d="M169,-122.3C169,-140.27 169,-165 169,-165 169,-165 490.58,-165 490.58,-165"/>
<polygon fill="black" stroke="black" points="490.58,-168.5 500.58,-165 490.58,-161.5 490.58,-168.5"/>
</g>
<!-- NgxModule -->
<g id="node10" class="node">
<title>NgxModule</title>
<polygon fill="#8dd3c7" stroke="black" points="107.66,-122 104.66,-126 83.66,-126 80.66,-122 24.34,-122 24.34,-86 107.66,-86 107.66,-122"/>
<text text-anchor="middle" x="66" y="-99.8" font-family="Times,serif" font-size="14.00">NgxModule</text>
</g>
<!-- NgxModule&#45;&gt;SharedModule -->
<g id="edge9" class="edge">
<title>NgxModule&#45;&gt;SharedModule</title>
<path fill="none" stroke="black" d="M79.82,-122.11C79.82,-141.34 79.82,-169 79.82,-169 79.82,-169 490.57,-169 490.57,-169"/>
<polygon fill="black" stroke="black" points="490.57,-172.5 500.57,-169 490.57,-165.5 490.57,-172.5"/>
</g>
</g>
</svg>
