<?xml version="1.0" encoding="UTF-8" standalone="no"?>
<!DOCTYPE svg PUBLIC "-//W3C//DTD SVG 1.1//EN"
 "http://www.w3.org/Graphics/SVG/1.1/DTD/svg11.dtd">
<!-- Generated by graphviz version 2.44.1 (20200629.0846)
 -->
<!-- Title: dependencies Pages: 1 -->
<svg width="658pt" height="211pt"
 viewBox="0.00 0.00 658.00 211.00" xmlns="http://www.w3.org/2000/svg" xmlns:xlink="http://www.w3.org/1999/xlink">
<g id="graph0" class="graph" transform="scale(1 1) rotate(0) translate(4 207)">
<title>dependencies</title>
<polygon fill="white" stroke="transparent" points="-4,4 -4,-207 654,-207 654,4 -4,4"/>
<text text-anchor="start" x="304.01" y="-42.4" font-family="sans-serif" font-weight="bold" font-size="14.00">Legend</text>
<polygon fill="#ffffb3" stroke="transparent" points="91,-10 91,-30 111,-30 111,-10 91,-10"/>
<text text-anchor="start" x="114.63" y="-15.4" font-family="sans-serif" font-size="14.00"> &#160;Declarations</text>
<polygon fill="#8dd3c7" stroke="transparent" points="204,-10 204,-30 224,-30 224,-10 204,-10"/>
<text text-anchor="start" x="227.73" y="-15.4" font-family="sans-serif" font-size="14.00"> &#160;Module</text>
<polygon fill="#80b1d3" stroke="transparent" points="290,-10 290,-30 310,-30 310,-10 290,-10"/>
<text text-anchor="start" x="313.78" y="-15.4" font-family="sans-serif" font-size="14.00"> &#160;Bootstrap</text>
<polygon fill="#fdb462" stroke="transparent" points="387,-10 387,-30 407,-30 407,-10 387,-10"/>
<text text-anchor="start" x="410.67" y="-15.4" font-family="sans-serif" font-size="14.00"> &#160;Providers</text>
<polygon fill="#fb8072" stroke="transparent" points="483,-10 483,-30 503,-30 503,-10 483,-10"/>
<text text-anchor="start" x="506.73" y="-15.4" font-family="sans-serif" font-size="14.00"> &#160;Exports</text>
<g id="clust1" class="cluster">
<title>cluster_DashboardModule</title>
<polygon fill="none" stroke="black" stroke-dasharray="1,5" points="8,-70 8,-195 642,-195 642,-70 8,-70"/>
</g>
<g id="clust6" class="cluster">
<title>cluster_DashboardModule_imports</title>
<polygon fill="none" stroke="black" points="520,-78 520,-130 634,-130 634,-78 520,-78"/>
</g>
<g id="clust2" class="cluster">
<title>cluster_DashboardModule_declarations</title>
<polygon fill="none" stroke="black" points="16,-78 16,-130 512,-130 512,-78 16,-78"/>
</g>
<!-- CreateUserProfileComponent -->
<g id="node1" class="node">
<title>CreateUserProfileComponent</title>
<polygon fill="#ffffb3" stroke="black" points="504.39,-122 321.61,-122 321.61,-86 504.39,-86 504.39,-122"/>
<text text-anchor="middle" x="413" y="-99.8" font-family="Times,serif" font-size="14.00">CreateUserProfileComponent</text>
</g>
<!-- DashboardModule -->
<g id="node4" class="node">
<title>DashboardModule</title>
<polygon fill="#8dd3c7" stroke="black" points="389.19,-187 386.19,-191 365.19,-191 362.19,-187 268.81,-187 268.81,-151 389.19,-151 389.19,-187"/>
<text text-anchor="middle" x="329" y="-164.8" font-family="Times,serif" font-size="14.00">DashboardModule</text>
</g>
<!-- CreateUserProfileComponent&#45;&gt;DashboardModule -->
<g id="edge1" class="edge">
<title>CreateUserProfileComponent&#45;&gt;DashboardModule</title>
<path fill="none" stroke="black" d="M355.45,-122.11C355.45,-122.11 355.45,-140.99 355.45,-140.99"/>
<polygon fill="black" stroke="black" points="351.95,-140.99 355.45,-150.99 358.95,-140.99 351.95,-140.99"/>
</g>
<!-- HomeComponent -->
<g id="node2" class="node">
<title>HomeComponent</title>
<polygon fill="#ffffb3" stroke="black" points="303.55,-122 188.45,-122 188.45,-86 303.55,-86 303.55,-122"/>
<text text-anchor="middle" x="246" y="-99.8" font-family="Times,serif" font-size="14.00">HomeComponent</text>
</g>
<!-- HomeComponent&#45;&gt;DashboardModule -->
<g id="edge2" class="edge">
<title>HomeComponent&#45;&gt;DashboardModule</title>
<path fill="none" stroke="black" d="M286.34,-122.11C286.34,-122.11 286.34,-140.99 286.34,-140.99"/>
<polygon fill="black" stroke="black" points="282.84,-140.99 286.34,-150.99 289.84,-140.99 282.84,-140.99"/>
</g>
<!-- UserProfileComponent -->
<g id="node3" class="node">
<title>UserProfileComponent</title>
<polygon fill="#ffffb3" stroke="black" points="169.86,-122 24.14,-122 24.14,-86 169.86,-86 169.86,-122"/>
<text text-anchor="middle" x="97" y="-99.8" font-family="Times,serif" font-size="14.00">UserProfileComponent</text>
</g>
<!-- UserProfileComponent&#45;&gt;DashboardModule -->
<g id="edge3" class="edge">
<title>UserProfileComponent&#45;&gt;DashboardModule</title>
<path fill="none" stroke="black" d="M97,-122.11C97,-141.34 97,-169 97,-169 97,-169 258.65,-169 258.65,-169"/>
<polygon fill="black" stroke="black" points="258.65,-172.5 268.65,-169 258.65,-165.5 258.65,-172.5"/>
</g>
<!-- SharedModule -->
<g id="node5" class="node">
<title>SharedModule</title>
<polygon fill="#8dd3c7" stroke="black" points="626.42,-122 623.42,-126 602.42,-126 599.42,-122 527.58,-122 527.58,-86 626.42,-86 626.42,-122"/>
<text text-anchor="middle" x="577" y="-99.8" font-family="Times,serif" font-size="14.00">SharedModule</text>
</g>
<!-- SharedModule&#45;&gt;DashboardModule -->
<g id="edge4" class="edge">
<title>SharedModule&#45;&gt;DashboardModule</title>
<path fill="none" stroke="black" d="M577,-122.11C577,-141.34 577,-169 577,-169 577,-169 399.35,-169 399.35,-169"/>
<polygon fill="black" stroke="black" points="399.35,-165.5 389.35,-169 399.35,-172.5 399.35,-165.5"/>
</g>
</g>
</svg>
