<?xml version="1.0" encoding="UTF-8" standalone="no"?>
<!DOCTYPE svg PUBLIC "-//W3C//DTD SVG 1.1//EN"
 "http://www.w3.org/Graphics/SVG/1.1/DTD/svg11.dtd">
<!-- Generated by graphviz version 2.44.1 (20200629.0846)
 -->
<!-- Title: dependencies Pages: 1 -->
<svg width="504pt" height="211pt"
 viewBox="0.00 0.00 504.00 211.00" xmlns="http://www.w3.org/2000/svg" xmlns:xlink="http://www.w3.org/1999/xlink">
<g id="graph0" class="graph" transform="scale(1 1) rotate(0) translate(4 207)">
<title>dependencies</title>
<polygon fill="white" stroke="transparent" points="-4,4 -4,-207 500,-207 500,4 -4,4"/>
<text text-anchor="start" x="227.01" y="-42.4" font-family="sans-serif" font-weight="bold" font-size="14.00">Legend</text>
<polygon fill="#ffffb3" stroke="transparent" points="14,-10 14,-30 34,-30 34,-10 14,-10"/>
<text text-anchor="start" x="37.63" y="-15.4" font-family="sans-serif" font-size="14.00"> &#160;Declarations</text>
<polygon fill="#8dd3c7" stroke="transparent" points="127,-10 127,-30 147,-30 147,-10 127,-10"/>
<text text-anchor="start" x="150.73" y="-15.4" font-family="sans-serif" font-size="14.00"> &#160;Module</text>
<polygon fill="#80b1d3" stroke="transparent" points="213,-10 213,-30 233,-30 233,-10 213,-10"/>
<text text-anchor="start" x="236.78" y="-15.4" font-family="sans-serif" font-size="14.00"> &#160;Bootstrap</text>
<polygon fill="#fdb462" stroke="transparent" points="310,-10 310,-30 330,-30 330,-10 310,-10"/>
<text text-anchor="start" x="333.67" y="-15.4" font-family="sans-serif" font-size="14.00"> &#160;Providers</text>
<polygon fill="#fb8072" stroke="transparent" points="406,-10 406,-30 426,-30 426,-10 406,-10"/>
<text text-anchor="start" x="429.73" y="-15.4" font-family="sans-serif" font-size="14.00"> &#160;Exports</text>
<g id="clust1" class="cluster">
<title>cluster_OrderLayoutModule</title>
<polygon fill="none" stroke="black" stroke-dasharray="1,5" points="25,-70 25,-195 471,-195 471,-70 25,-70"/>
</g>
<g id="clust5" class="cluster">
<title>cluster_OrderLayoutModule_imports</title>
<polygon fill="none" stroke="black" points="349,-78 349,-130 463,-130 463,-78 349,-78"/>
</g>
<g id="clust2" class="cluster">
<title>cluster_OrderLayoutModule_declarations</title>
<polygon fill="none" stroke="black" points="33,-78 33,-130 341,-130 341,-78 33,-78"/>
</g>
<!-- OrderDetailsComponent -->
<g id="node1" class="node">
<title>OrderDetailsComponent</title>
<polygon fill="#ffffb3" stroke="black" points="332.63,-122 179.37,-122 179.37,-86 332.63,-86 332.63,-122"/>
<text text-anchor="middle" x="256" y="-99.8" font-family="Times,serif" font-size="14.00">OrderDetailsComponent</text>
</g>
<!-- OrderLayoutModule -->
<g id="node3" class="node">
<title>OrderLayoutModule</title>
<polygon fill="#8dd3c7" stroke="black" points="321.85,-187 318.85,-191 297.85,-191 294.85,-187 190.15,-187 190.15,-151 321.85,-151 321.85,-187"/>
<text text-anchor="middle" x="256" y="-164.8" font-family="Times,serif" font-size="14.00">OrderLayoutModule</text>
</g>
<!-- OrderDetailsComponent&#45;&gt;OrderLayoutModule -->
<g id="edge1" class="edge">
<title>OrderDetailsComponent&#45;&gt;OrderLayoutModule</title>
<path fill="none" stroke="black" d="M256,-122.11C256,-122.11 256,-140.99 256,-140.99"/>
<polygon fill="black" stroke="black" points="252.5,-140.99 256,-150.99 259.5,-140.99 252.5,-140.99"/>
</g>
<!-- OrdersComponent -->
<g id="node2" class="node">
<title>OrdersComponent</title>
<polygon fill="#ffffb3" stroke="black" points="160.92,-122 41.08,-122 41.08,-86 160.92,-86 160.92,-122"/>
<text text-anchor="middle" x="101" y="-99.8" font-family="Times,serif" font-size="14.00">OrdersComponent</text>
</g>
<!-- OrdersComponent&#45;&gt;OrderLayoutModule -->
<g id="edge2" class="edge">
<title>OrdersComponent&#45;&gt;OrderLayoutModule</title>
<path fill="none" stroke="black" d="M101,-122.11C101,-141.34 101,-169 101,-169 101,-169 179.82,-169 179.82,-169"/>
<polygon fill="black" stroke="black" points="179.82,-172.5 189.82,-169 179.82,-165.5 179.82,-172.5"/>
</g>
<!-- SharedModule -->
<g id="node4" class="node">
<title>SharedModule</title>
<polygon fill="#8dd3c7" stroke="black" points="455.42,-122 452.42,-126 431.42,-126 428.42,-122 356.58,-122 356.58,-86 455.42,-86 455.42,-122"/>
<text text-anchor="middle" x="406" y="-99.8" font-family="Times,serif" font-size="14.00">SharedModule</text>
</g>
<!-- SharedModule&#45;&gt;OrderLayoutModule -->
<g id="edge3" class="edge">
<title>SharedModule&#45;&gt;OrderLayoutModule</title>
<path fill="none" stroke="black" d="M406,-122.11C406,-141.34 406,-169 406,-169 406,-169 332.23,-169 332.23,-169"/>
<polygon fill="black" stroke="black" points="332.23,-165.5 322.23,-169 332.23,-172.5 332.23,-165.5"/>
</g>
</g>
</svg>
