<?xml version="1.0" encoding="UTF-8" standalone="no"?>
<!DOCTYPE svg PUBLIC "-//W3C//DTD SVG 1.1//EN"
 "http://www.w3.org/Graphics/SVG/1.1/DTD/svg11.dtd">
<!-- Generated by graphviz version 2.44.1 (20200629.0846)
 -->
<!-- Title: dependencies Pages: 1 -->
<svg width="622pt" height="211pt"
 viewBox="0.00 0.00 622.00 211.00" xmlns="http://www.w3.org/2000/svg" xmlns:xlink="http://www.w3.org/1999/xlink">
<g id="graph0" class="graph" transform="scale(1 1) rotate(0) translate(4 207)">
<title>dependencies</title>
<polygon fill="white" stroke="transparent" points="-4,4 -4,-207 618,-207 618,4 -4,4"/>
<text text-anchor="start" x="286.01" y="-42.4" font-family="sans-serif" font-weight="bold" font-size="14.00">Legend</text>
<polygon fill="#ffffb3" stroke="transparent" points="73,-10 73,-30 93,-30 93,-10 73,-10"/>
<text text-anchor="start" x="96.63" y="-15.4" font-family="sans-serif" font-size="14.00"> &#160;Declarations</text>
<polygon fill="#8dd3c7" stroke="transparent" points="186,-10 186,-30 206,-30 206,-10 186,-10"/>
<text text-anchor="start" x="209.73" y="-15.4" font-family="sans-serif" font-size="14.00"> &#160;Module</text>
<polygon fill="#80b1d3" stroke="transparent" points="272,-10 272,-30 292,-30 292,-10 272,-10"/>
<text text-anchor="start" x="295.78" y="-15.4" font-family="sans-serif" font-size="14.00"> &#160;Bootstrap</text>
<polygon fill="#fdb462" stroke="transparent" points="369,-10 369,-30 389,-30 389,-10 369,-10"/>
<text text-anchor="start" x="392.67" y="-15.4" font-family="sans-serif" font-size="14.00"> &#160;Providers</text>
<polygon fill="#fb8072" stroke="transparent" points="465,-10 465,-30 485,-30 485,-10 465,-10"/>
<text text-anchor="start" x="488.73" y="-15.4" font-family="sans-serif" font-size="14.00"> &#160;Exports</text>
<g id="clust1" class="cluster">
<title>cluster_AuthModule</title>
<polygon fill="none" stroke="black" stroke-dasharray="1,5" points="8,-70 8,-195 606,-195 606,-70 8,-70"/>
</g>
<g id="clust6" class="cluster">
<title>cluster_AuthModule_imports</title>
<polygon fill="none" stroke="black" points="484,-78 484,-130 598,-130 598,-78 484,-78"/>
</g>
<g id="clust2" class="cluster">
<title>cluster_AuthModule_declarations</title>
<polygon fill="none" stroke="black" points="16,-78 16,-130 476,-130 476,-78 16,-78"/>
</g>
<!-- LoginComponent -->
<g id="node1" class="node">
<title>LoginComponent</title>
<polygon fill="#ffffb3" stroke="black" points="468.28,-122 353.72,-122 353.72,-86 468.28,-86 468.28,-122"/>
<text text-anchor="middle" x="411" y="-99.8" font-family="Times,serif" font-size="14.00">LoginComponent</text>
</g>
<!-- AuthModule -->
<g id="node4" class="node">
<title>AuthModule</title>
<polygon fill="#8dd3c7" stroke="black" points="384.55,-187 381.55,-191 360.55,-191 357.55,-187 297.45,-187 297.45,-151 384.55,-151 384.55,-187"/>
<text text-anchor="middle" x="341" y="-164.8" font-family="Times,serif" font-size="14.00">AuthModule</text>
</g>
<!-- LoginComponent&#45;&gt;AuthModule -->
<g id="edge1" class="edge">
<title>LoginComponent&#45;&gt;AuthModule</title>
<path fill="none" stroke="black" d="M369.19,-122.11C369.19,-122.11 369.19,-140.99 369.19,-140.99"/>
<polygon fill="black" stroke="black" points="365.69,-140.99 369.19,-150.99 372.69,-140.99 365.69,-140.99"/>
</g>
<!-- RegisterComponent -->
<g id="node2" class="node">
<title>RegisterComponent</title>
<polygon fill="#ffffb3" stroke="black" points="335.98,-122 208.02,-122 208.02,-86 335.98,-86 335.98,-122"/>
<text text-anchor="middle" x="272" y="-99.8" font-family="Times,serif" font-size="14.00">RegisterComponent</text>
</g>
<!-- RegisterComponent&#45;&gt;AuthModule -->
<g id="edge2" class="edge">
<title>RegisterComponent&#45;&gt;AuthModule</title>
<path fill="none" stroke="black" d="M316.61,-122.11C316.61,-122.11 316.61,-140.99 316.61,-140.99"/>
<polygon fill="black" stroke="black" points="313.11,-140.99 316.61,-150.99 320.11,-140.99 313.11,-140.99"/>
</g>
<!-- ResetPasswordComponent -->
<g id="node3" class="node">
<title>ResetPasswordComponent</title>
<polygon fill="#ffffb3" stroke="black" points="190.09,-122 23.91,-122 23.91,-86 190.09,-86 190.09,-122"/>
<text text-anchor="middle" x="107" y="-99.8" font-family="Times,serif" font-size="14.00">ResetPasswordComponent</text>
</g>
<!-- ResetPasswordComponent&#45;&gt;AuthModule -->
<g id="edge3" class="edge">
<title>ResetPasswordComponent&#45;&gt;AuthModule</title>
<path fill="none" stroke="black" d="M107,-122.11C107,-141.34 107,-169 107,-169 107,-169 287.26,-169 287.26,-169"/>
<polygon fill="black" stroke="black" points="287.26,-172.5 297.26,-169 287.26,-165.5 287.26,-172.5"/>
</g>
<!-- SharedModule -->
<g id="node5" class="node">
<title>SharedModule</title>
<polygon fill="#8dd3c7" stroke="black" points="590.42,-122 587.42,-126 566.42,-126 563.42,-122 491.58,-122 491.58,-86 590.42,-86 590.42,-122"/>
<text text-anchor="middle" x="541" y="-99.8" font-family="Times,serif" font-size="14.00">SharedModule</text>
</g>
<!-- SharedModule&#45;&gt;AuthModule -->
<g id="edge4" class="edge">
<title>SharedModule&#45;&gt;AuthModule</title>
<path fill="none" stroke="black" d="M541,-122.11C541,-141.34 541,-169 541,-169 541,-169 394.89,-169 394.89,-169"/>
<polygon fill="black" stroke="black" points="394.89,-165.5 384.89,-169 394.89,-172.5 394.89,-165.5"/>
</g>
</g>
</svg>
