<?xml version="1.0" encoding="UTF-8" standalone="no"?>
<!DOCTYPE svg PUBLIC "-//W3C//DTD SVG 1.1//EN"
 "http://www.w3.org/Graphics/SVG/1.1/DTD/svg11.dtd">
<!-- Generated by graphviz version 2.44.1 (20200629.0846)
 -->
<!-- Title: dependencies Pages: 1 -->
<svg width="504pt" height="284pt"
 viewBox="0.00 0.00 504.00 284.00" xmlns="http://www.w3.org/2000/svg" xmlns:xlink="http://www.w3.org/1999/xlink">
<g id="graph0" class="graph" transform="scale(1 1) rotate(0) translate(4 280)">
<title>dependencies</title>
<polygon fill="white" stroke="transparent" points="-4,4 -4,-280 500,-280 500,4 -4,4"/>
<text text-anchor="start" x="227.01" y="-42.4" font-family="sans-serif" font-weight="bold" font-size="14.00">Legend</text>
<polygon fill="#ffffb3" stroke="transparent" points="14,-10 14,-30 34,-30 34,-10 14,-10"/>
<text text-anchor="start" x="37.63" y="-15.4" font-family="sans-serif" font-size="14.00"> &#160;Declarations</text>
<polygon fill="#8dd3c7" stroke="transparent" points="127,-10 127,-30 147,-30 147,-10 127,-10"/>
<text text-anchor="start" x="150.73" y="-15.4" font-family="sans-serif" font-size="14.00"> &#160;Module</text>
<polygon fill="#80b1d3" stroke="transparent" points="213,-10 213,-30 233,-30 233,-10 213,-10"/>
<text text-anchor="start" x="236.78" y="-15.4" font-family="sans-serif" font-size="14.00"> &#160;Bootstrap</text>
<polygon fill="#fdb462" stroke="transparent" points="310,-10 310,-30 330,-30 330,-10 310,-10"/>
<text text-anchor="start" x="333.67" y="-15.4" font-family="sans-serif" font-size="14.00"> &#160;Providers</text>
<polygon fill="#fb8072" stroke="transparent" points="406,-10 406,-30 426,-30 426,-10 406,-10"/>
<text text-anchor="start" x="429.73" y="-15.4" font-family="sans-serif" font-size="14.00"> &#160;Exports</text>
<g id="clust1" class="cluster">
<title>cluster_PipesModule</title>
<polygon fill="none" stroke="black" stroke-dasharray="1,5" points="21,-70 21,-268 475,-268 475,-70 21,-70"/>
</g>
<g id="clust8" class="cluster">
<title>cluster_PipesModule_exports</title>
<polygon fill="none" stroke="black" points="29,-208 29,-260 467,-260 467,-208 29,-208"/>
</g>
<g id="clust2" class="cluster">
<title>cluster_PipesModule_declarations</title>
<polygon fill="none" stroke="black" points="37,-78 37,-130 462,-130 462,-78 37,-78"/>
</g>
<!-- CategoryPipe -->
<g id="node1" class="node">
<title>CategoryPipe</title>
<polygon fill="#ffffb3" stroke="black" points="454.21,-122 361.79,-122 361.79,-86 454.21,-86 454.21,-122"/>
<text text-anchor="middle" x="408" y="-99.8" font-family="Times,serif" font-size="14.00">CategoryPipe</text>
</g>
<!-- PipesModule -->
<g id="node5" class="node">
<title>PipesModule</title>
<polygon fill="#8dd3c7" stroke="black" points="229.88,-187 226.88,-191 205.88,-191 202.88,-187 140.12,-187 140.12,-151 229.88,-151 229.88,-187"/>
<text text-anchor="middle" x="185" y="-164.8" font-family="Times,serif" font-size="14.00">PipesModule</text>
</g>
<!-- CategoryPipe&#45;&gt;PipesModule -->
<g id="edge1" class="edge">
<title>CategoryPipe&#45;&gt;PipesModule</title>
<path fill="none" stroke="black" d="M423.78,-122.27C423.78,-140.56 423.78,-166 423.78,-166 423.78,-166 239.91,-166 239.91,-166"/>
<polygon fill="black" stroke="black" points="239.91,-162.5 229.91,-166 239.91,-169.5 239.91,-162.5"/>
</g>
<!-- GeneralPipe -->
<g id="node2" class="node">
<title>GeneralPipe</title>
<polygon fill="#ffffb3" stroke="black" points="343.69,-122 258.31,-122 258.31,-86 343.69,-86 343.69,-122"/>
<text text-anchor="middle" x="301" y="-99.8" font-family="Times,serif" font-size="14.00">GeneralPipe</text>
</g>
<!-- GeneralPipe&#45;&gt;PipesModule -->
<g id="edge2" class="edge">
<title>GeneralPipe&#45;&gt;PipesModule</title>
<path fill="none" stroke="black" d="M315.2,-122.01C315.2,-138.05 315.2,-159 315.2,-159 315.2,-159 240.17,-159 240.17,-159"/>
<polygon fill="black" stroke="black" points="240.17,-155.5 230.17,-159 240.17,-162.5 240.17,-155.5"/>
</g>
<!-- ProductFilterPipe -->
<g id="node3" class="node">
<title>ProductFilterPipe</title>
<polygon fill="#ffffb3" stroke="black" points="240.27,-122 125.73,-122 125.73,-86 240.27,-86 240.27,-122"/>
<text text-anchor="middle" x="183" y="-99.8" font-family="Times,serif" font-size="14.00">ProductFilterPipe</text>
</g>
<!-- ProductFilterPipe&#45;&gt;PipesModule -->
<g id="edge3" class="edge">
<title>ProductFilterPipe&#45;&gt;PipesModule</title>
<path fill="none" stroke="black" d="M185,-122.11C185,-122.11 185,-140.99 185,-140.99"/>
<polygon fill="black" stroke="black" points="181.5,-140.99 185,-150.99 188.5,-140.99 181.5,-140.99"/>
</g>
<!-- TagPipe -->
<g id="node4" class="node">
<title>TagPipe</title>
<polygon fill="#ffffb3" stroke="black" points="107.16,-122 44.84,-122 44.84,-86 107.16,-86 107.16,-122"/>
<text text-anchor="middle" x="76" y="-99.8" font-family="Times,serif" font-size="14.00">TagPipe</text>
</g>
<!-- TagPipe&#45;&gt;PipesModule -->
<g id="edge4" class="edge">
<title>TagPipe&#45;&gt;PipesModule</title>
<path fill="none" stroke="black" d="M83.61,-122.02C83.61,-139.37 83.61,-163 83.61,-163 83.61,-163 129.94,-163 129.94,-163"/>
<polygon fill="black" stroke="black" points="129.94,-166.5 139.94,-163 129.94,-159.5 129.94,-166.5"/>
</g>
<!-- CategoryPipe  -->
<g id="node6" class="node">
<title>CategoryPipe </title>
<polygon fill="#fb8072" stroke="black" points="458.71,-252 363.29,-252 363.29,-216 458.71,-216 458.71,-252"/>
<text text-anchor="middle" x="411" y="-229.8" font-family="Times,serif" font-size="14.00">CategoryPipe </text>
</g>
<!-- PipesModule&#45;&gt;CategoryPipe  -->
<g id="edge5" class="edge">
<title>PipesModule&#45;&gt;CategoryPipe </title>
<path fill="none" stroke="black" stroke-dasharray="5,2" d="M229.98,-173C291.26,-173 393.47,-173 393.47,-173 393.47,-173 393.47,-205.7 393.47,-205.7"/>
<polygon fill="black" stroke="black" points="389.97,-205.7 393.47,-215.7 396.97,-205.7 389.97,-205.7"/>
</g>
<!-- GeneralPipe  -->
<g id="node7" class="node">
<title>GeneralPipe </title>
<polygon fill="#fb8072" stroke="black" points="345.19,-252 256.81,-252 256.81,-216 345.19,-216 345.19,-252"/>
<text text-anchor="middle" x="301" y="-229.8" font-family="Times,serif" font-size="14.00">GeneralPipe </text>
</g>
<!-- PipesModule&#45;&gt;GeneralPipe  -->
<g id="edge6" class="edge">
<title>PipesModule&#45;&gt;GeneralPipe </title>
<path fill="none" stroke="black" stroke-dasharray="5,2" d="M229.95,-180C257.22,-180 286.8,-180 286.8,-180 286.8,-180 286.8,-205.72 286.8,-205.72"/>
<polygon fill="black" stroke="black" points="283.3,-205.72 286.8,-215.72 290.3,-205.72 283.3,-205.72"/>
</g>
<!-- ProductFilterPipe  -->
<g id="node8" class="node">
<title>ProductFilterPipe </title>
<polygon fill="#fb8072" stroke="black" points="239.27,-252 120.73,-252 120.73,-216 239.27,-216 239.27,-252"/>
<text text-anchor="middle" x="180" y="-229.8" font-family="Times,serif" font-size="14.00">ProductFilterPipe </text>
</g>
<!-- PipesModule&#45;&gt;ProductFilterPipe  -->
<g id="edge7" class="edge">
<title>PipesModule&#45;&gt;ProductFilterPipe </title>
<path fill="none" stroke="black" stroke-dasharray="5,2" d="M185,-187.11C185,-187.11 185,-205.99 185,-205.99"/>
<polygon fill="black" stroke="black" points="181.5,-205.99 185,-215.99 188.5,-205.99 181.5,-205.99"/>
</g>
<!-- TagPipe  -->
<g id="node9" class="node">
<title>TagPipe </title>
<polygon fill="#fb8072" stroke="black" points="103.16,-252 36.84,-252 36.84,-216 103.16,-216 103.16,-252"/>
<text text-anchor="middle" x="70" y="-229.8" font-family="Times,serif" font-size="14.00">TagPipe </text>
</g>
<!-- PipesModule&#45;&gt;TagPipe  -->
<g id="edge8" class="edge">
<title>PipesModule&#45;&gt;TagPipe </title>
<path fill="none" stroke="black" stroke-dasharray="5,2" d="M140,-175C105.63,-175 64.14,-175 64.14,-175 64.14,-175 64.14,-205.98 64.14,-205.98"/>
<polygon fill="black" stroke="black" points="60.64,-205.98 64.14,-215.98 67.64,-205.98 60.64,-205.98"/>
</g>
</g>
</svg>
