<?xml version="1.0" encoding="UTF-8" standalone="no"?>
<!DOCTYPE svg PUBLIC "-//W3C//DTD SVG 1.1//EN"
 "http://www.w3.org/Graphics/SVG/1.1/DTD/svg11.dtd">
<!-- Generated by graphviz version 2.44.1 (20200629.0846)
 -->
<!-- Title: dependencies Pages: 1 -->
<svg width="748pt" height="284pt"
 viewBox="0.00 0.00 748.00 284.00" xmlns="http://www.w3.org/2000/svg" xmlns:xlink="http://www.w3.org/1999/xlink">
<g id="graph0" class="graph" transform="scale(1 1) rotate(0) translate(4 280)">
<title>dependencies</title>
<polygon fill="white" stroke="transparent" points="-4,4 -4,-280 744,-280 744,4 -4,4"/>
<text text-anchor="start" x="349.01" y="-42.4" font-family="sans-serif" font-weight="bold" font-size="14.00">Legend</text>
<polygon fill="#ffffb3" stroke="transparent" points="136,-10 136,-30 156,-30 156,-10 136,-10"/>
<text text-anchor="start" x="159.63" y="-15.4" font-family="sans-serif" font-size="14.00"> &#160;Declarations</text>
<polygon fill="#8dd3c7" stroke="transparent" points="249,-10 249,-30 269,-30 269,-10 249,-10"/>
<text text-anchor="start" x="272.73" y="-15.4" font-family="sans-serif" font-size="14.00"> &#160;Module</text>
<polygon fill="#80b1d3" stroke="transparent" points="335,-10 335,-30 355,-30 355,-10 335,-10"/>
<text text-anchor="start" x="358.78" y="-15.4" font-family="sans-serif" font-size="14.00"> &#160;Bootstrap</text>
<polygon fill="#fdb462" stroke="transparent" points="432,-10 432,-30 452,-30 452,-10 432,-10"/>
<text text-anchor="start" x="455.67" y="-15.4" font-family="sans-serif" font-size="14.00"> &#160;Providers</text>
<polygon fill="#fb8072" stroke="transparent" points="528,-10 528,-30 548,-30 548,-10 528,-10"/>
<text text-anchor="start" x="551.73" y="-15.4" font-family="sans-serif" font-size="14.00"> &#160;Exports</text>
<g id="clust1" class="cluster">
<title>cluster_ComponentModule</title>
<polygon fill="none" stroke="black" stroke-dasharray="1,5" points="8,-70 8,-268 732,-268 732,-70 8,-70"/>
</g>
<g id="clust7" class="cluster">
<title>cluster_ComponentModule_exports</title>
<polygon fill="none" stroke="black" points="148,-208 148,-260 576,-260 576,-208 148,-208"/>
</g>
<g id="clust6" class="cluster">
<title>cluster_ComponentModule_imports</title>
<polygon fill="none" stroke="black" points="440,-78 440,-130 724,-130 724,-78 440,-78"/>
</g>
<g id="clust2" class="cluster">
<title>cluster_ComponentModule_declarations</title>
<polygon fill="none" stroke="black" points="16,-78 16,-130 432,-130 432,-78 16,-78"/>
</g>
<!-- FooterComponent -->
<g id="node1" class="node">
<title>FooterComponent</title>
<polygon fill="#ffffb3" stroke="black" points="423.88,-122 306.12,-122 306.12,-86 423.88,-86 423.88,-122"/>
<text text-anchor="middle" x="365" y="-99.8" font-family="Times,serif" font-size="14.00">FooterComponent</text>
</g>
<!-- ComponentModule -->
<g id="node4" class="node">
<title>ComponentModule</title>
<polygon fill="#8dd3c7" stroke="black" points="427.38,-187 424.38,-191 403.38,-191 400.38,-187 302.62,-187 302.62,-151 427.38,-151 427.38,-187"/>
<text text-anchor="middle" x="365" y="-164.8" font-family="Times,serif" font-size="14.00">ComponentModule</text>
</g>
<!-- FooterComponent&#45;&gt;ComponentModule -->
<g id="edge1" class="edge">
<title>FooterComponent&#45;&gt;ComponentModule</title>
<path fill="none" stroke="black" d="M365,-122.11C365,-122.11 365,-140.99 365,-140.99"/>
<polygon fill="black" stroke="black" points="361.5,-140.99 365,-150.99 368.5,-140.99 361.5,-140.99"/>
</g>
<!-- NavbarComponent -->
<g id="node2" class="node">
<title>NavbarComponent</title>
<polygon fill="#ffffb3" stroke="black" points="288.03,-122 165.97,-122 165.97,-86 288.03,-86 288.03,-122"/>
<text text-anchor="middle" x="227" y="-99.8" font-family="Times,serif" font-size="14.00">NavbarComponent</text>
</g>
<!-- NavbarComponent&#45;&gt;ComponentModule -->
<g id="edge2" class="edge">
<title>NavbarComponent&#45;&gt;ComponentModule</title>
<path fill="none" stroke="black" d="M244.44,-122.03C244.44,-138.4 244.44,-160 244.44,-160 244.44,-160 292.6,-160 292.6,-160"/>
<polygon fill="black" stroke="black" points="292.6,-163.5 302.6,-160 292.6,-156.5 292.6,-163.5"/>
</g>
<!-- SidebarComponent -->
<g id="node3" class="node">
<title>SidebarComponent</title>
<polygon fill="#ffffb3" stroke="black" points="148.1,-122 23.9,-122 23.9,-86 148.1,-86 148.1,-122"/>
<text text-anchor="middle" x="86" y="-99.8" font-family="Times,serif" font-size="14.00">SidebarComponent</text>
</g>
<!-- SidebarComponent&#45;&gt;ComponentModule -->
<g id="edge3" class="edge">
<title>SidebarComponent&#45;&gt;ComponentModule</title>
<path fill="none" stroke="black" d="M86,-122.11C86,-141.34 86,-169 86,-169 86,-169 292.39,-169 292.39,-169"/>
<polygon fill="black" stroke="black" points="292.39,-172.5 302.39,-169 292.39,-165.5 292.39,-172.5"/>
</g>
<!-- FooterComponent  -->
<g id="node7" class="node">
<title>FooterComponent </title>
<polygon fill="#fb8072" stroke="black" points="567.88,-252 446.12,-252 446.12,-216 567.88,-216 567.88,-252"/>
<text text-anchor="middle" x="507" y="-229.8" font-family="Times,serif" font-size="14.00">FooterComponent </text>
</g>
<!-- ComponentModule&#45;&gt;FooterComponent  -->
<g id="edge6" class="edge">
<title>ComponentModule&#45;&gt;FooterComponent </title>
<path fill="none" stroke="black" stroke-dasharray="5,2" d="M427.53,-178C454.77,-178 480.6,-178 480.6,-178 480.6,-178 480.6,-205.97 480.6,-205.97"/>
<polygon fill="black" stroke="black" points="477.1,-205.97 480.6,-215.97 484.1,-205.97 477.1,-205.97"/>
</g>
<!-- NavbarComponent  -->
<g id="node8" class="node">
<title>NavbarComponent </title>
<polygon fill="#fb8072" stroke="black" points="428.03,-252 301.97,-252 301.97,-216 428.03,-216 428.03,-252"/>
<text text-anchor="middle" x="365" y="-229.8" font-family="Times,serif" font-size="14.00">NavbarComponent </text>
</g>
<!-- ComponentModule&#45;&gt;NavbarComponent  -->
<g id="edge7" class="edge">
<title>ComponentModule&#45;&gt;NavbarComponent </title>
<path fill="none" stroke="black" stroke-dasharray="5,2" d="M365,-187.11C365,-187.11 365,-205.99 365,-205.99"/>
<polygon fill="black" stroke="black" points="361.5,-205.99 365,-215.99 368.5,-205.99 361.5,-205.99"/>
</g>
<!-- SidebarComponent  -->
<g id="node9" class="node">
<title>SidebarComponent </title>
<polygon fill="#fb8072" stroke="black" points="283.6,-252 156.4,-252 156.4,-216 283.6,-216 283.6,-252"/>
<text text-anchor="middle" x="220" y="-229.8" font-family="Times,serif" font-size="14.00">SidebarComponent </text>
</g>
<!-- ComponentModule&#45;&gt;SidebarComponent  -->
<g id="edge8" class="edge">
<title>ComponentModule&#45;&gt;SidebarComponent </title>
<path fill="none" stroke="black" stroke-dasharray="5,2" d="M302.26,-178C257.46,-178 205.09,-178 205.09,-178 205.09,-178 205.09,-205.97 205.09,-205.97"/>
<polygon fill="black" stroke="black" points="201.59,-205.97 205.09,-215.97 208.59,-205.97 201.59,-205.97"/>
</g>
<!-- CommonLayoutModule -->
<g id="node5" class="node">
<title>CommonLayoutModule</title>
<polygon fill="#8dd3c7" stroke="black" points="715.83,-122 712.83,-126 691.83,-126 688.83,-122 564.17,-122 564.17,-86 715.83,-86 715.83,-122"/>
<text text-anchor="middle" x="640" y="-99.8" font-family="Times,serif" font-size="14.00">CommonLayoutModule</text>
</g>
<!-- CommonLayoutModule&#45;&gt;ComponentModule -->
<g id="edge4" class="edge">
<title>CommonLayoutModule&#45;&gt;ComponentModule</title>
<path fill="none" stroke="black" d="M641.68,-122.11C641.68,-141.34 641.68,-169 641.68,-169 641.68,-169 437.44,-169 437.44,-169"/>
<polygon fill="black" stroke="black" points="437.44,-165.5 427.44,-169 437.44,-172.5 437.44,-165.5"/>
</g>
<!-- SharedModule -->
<g id="node6" class="node">
<title>SharedModule</title>
<polygon fill="#8dd3c7" stroke="black" points="546.42,-122 543.42,-126 522.42,-126 519.42,-122 447.58,-122 447.58,-86 546.42,-86 546.42,-122"/>
<text text-anchor="middle" x="497" y="-99.8" font-family="Times,serif" font-size="14.00">SharedModule</text>
</g>
<!-- SharedModule&#45;&gt;ComponentModule -->
<g id="edge5" class="edge">
<title>SharedModule&#45;&gt;ComponentModule</title>
<path fill="none" stroke="black" d="M513.4,-122.03C513.4,-138.4 513.4,-160 513.4,-160 513.4,-160 437.51,-160 437.51,-160"/>
<polygon fill="black" stroke="black" points="437.51,-156.5 427.51,-160 437.51,-163.5 437.51,-156.5"/>
</g>
</g>
</svg>
