<?xml version="1.0" encoding="UTF-8" standalone="no"?>
<!DOCTYPE svg PUBLIC "-//W3C//DTD SVG 1.1//EN"
 "http://www.w3.org/Graphics/SVG/1.1/DTD/svg11.dtd">
<!-- Generated by graphviz version 2.44.1 (20200629.0846)
 -->
<!-- Title: dependencies Pages: 1 -->
<svg width="504pt" height="211pt"
 viewBox="0.00 0.00 504.00 211.00" xmlns="http://www.w3.org/2000/svg" xmlns:xlink="http://www.w3.org/1999/xlink">
<g id="graph0" class="graph" transform="scale(1 1) rotate(0) translate(4 207)">
<title>dependencies</title>
<polygon fill="white" stroke="transparent" points="-4,4 -4,-207 500,-207 500,4 -4,4"/>
<text text-anchor="start" x="227.01" y="-42.4" font-family="sans-serif" font-weight="bold" font-size="14.00">Legend</text>
<polygon fill="#ffffb3" stroke="transparent" points="14,-10 14,-30 34,-30 34,-10 14,-10"/>
<text text-anchor="start" x="37.63" y="-15.4" font-family="sans-serif" font-size="14.00"> &#160;Declarations</text>
<polygon fill="#8dd3c7" stroke="transparent" points="127,-10 127,-30 147,-30 147,-10 127,-10"/>
<text text-anchor="start" x="150.73" y="-15.4" font-family="sans-serif" font-size="14.00"> &#160;Module</text>
<polygon fill="#80b1d3" stroke="transparent" points="213,-10 213,-30 233,-30 233,-10 213,-10"/>
<text text-anchor="start" x="236.78" y="-15.4" font-family="sans-serif" font-size="14.00"> &#160;Bootstrap</text>
<polygon fill="#fdb462" stroke="transparent" points="310,-10 310,-30 330,-30 330,-10 310,-10"/>
<text text-anchor="start" x="333.67" y="-15.4" font-family="sans-serif" font-size="14.00"> &#160;Providers</text>
<polygon fill="#fb8072" stroke="transparent" points="406,-10 406,-30 426,-30 426,-10 406,-10"/>
<text text-anchor="start" x="429.73" y="-15.4" font-family="sans-serif" font-size="14.00"> &#160;Exports</text>
<g id="clust1" class="cluster">
<title>cluster_TagLayoutModule</title>
<polygon fill="none" stroke="black" stroke-dasharray="1,5" points="41,-70 41,-195 455,-195 455,-70 41,-70"/>
</g>
<g id="clust5" class="cluster">
<title>cluster_TagLayoutModule_imports</title>
<polygon fill="none" stroke="black" points="333,-78 333,-130 447,-130 447,-78 333,-78"/>
</g>
<g id="clust2" class="cluster">
<title>cluster_TagLayoutModule_declarations</title>
<polygon fill="none" stroke="black" points="49,-78 49,-130 325,-130 325,-78 49,-78"/>
</g>
<!-- TagItemsComponent -->
<g id="node1" class="node">
<title>TagItemsComponent</title>
<polygon fill="#ffffb3" stroke="black" points="317.2,-122 182.8,-122 182.8,-86 317.2,-86 317.2,-122"/>
<text text-anchor="middle" x="250" y="-99.8" font-family="Times,serif" font-size="14.00">TagItemsComponent</text>
</g>
<!-- TagLayoutModule -->
<g id="node3" class="node">
<title>TagLayoutModule</title>
<polygon fill="#8dd3c7" stroke="black" points="310.47,-187 307.47,-191 286.47,-191 283.47,-187 189.53,-187 189.53,-151 310.47,-151 310.47,-187"/>
<text text-anchor="middle" x="250" y="-164.8" font-family="Times,serif" font-size="14.00">TagLayoutModule</text>
</g>
<!-- TagItemsComponent&#45;&gt;TagLayoutModule -->
<g id="edge1" class="edge">
<title>TagItemsComponent&#45;&gt;TagLayoutModule</title>
<path fill="none" stroke="black" d="M250,-122.11C250,-122.11 250,-140.99 250,-140.99"/>
<polygon fill="black" stroke="black" points="246.5,-140.99 250,-150.99 253.5,-140.99 246.5,-140.99"/>
</g>
<!-- TagsComponent -->
<g id="node2" class="node">
<title>TagsComponent</title>
<polygon fill="#ffffb3" stroke="black" points="165.05,-122 56.95,-122 56.95,-86 165.05,-86 165.05,-122"/>
<text text-anchor="middle" x="111" y="-99.8" font-family="Times,serif" font-size="14.00">TagsComponent</text>
</g>
<!-- TagsComponent&#45;&gt;TagLayoutModule -->
<g id="edge2" class="edge">
<title>TagsComponent&#45;&gt;TagLayoutModule</title>
<path fill="none" stroke="black" d="M111,-122.11C111,-141.34 111,-169 111,-169 111,-169 179.44,-169 179.44,-169"/>
<polygon fill="black" stroke="black" points="179.44,-172.5 189.44,-169 179.44,-165.5 179.44,-172.5"/>
</g>
<!-- SharedModule -->
<g id="node4" class="node">
<title>SharedModule</title>
<polygon fill="#8dd3c7" stroke="black" points="439.42,-122 436.42,-126 415.42,-126 412.42,-122 340.58,-122 340.58,-86 439.42,-86 439.42,-122"/>
<text text-anchor="middle" x="390" y="-99.8" font-family="Times,serif" font-size="14.00">SharedModule</text>
</g>
<!-- SharedModule&#45;&gt;TagLayoutModule -->
<g id="edge3" class="edge">
<title>SharedModule&#45;&gt;TagLayoutModule</title>
<path fill="none" stroke="black" d="M390,-122.11C390,-141.34 390,-169 390,-169 390,-169 320.59,-169 320.59,-169"/>
<polygon fill="black" stroke="black" points="320.59,-165.5 310.59,-169 320.59,-172.5 320.59,-165.5"/>
</g>
</g>
</svg>
