<?xml version="1.0" encoding="UTF-8" standalone="no"?>
<!DOCTYPE svg PUBLIC "-//W3C//DTD SVG 1.1//EN"
 "http://www.w3.org/Graphics/SVG/1.1/DTD/svg11.dtd">
<!-- Generated by graphviz version 2.44.1 (20200629.0846)
 -->
<!-- Title: dependencies Pages: 1 -->
<svg width="634pt" height="211pt"
 viewBox="0.00 0.00 634.00 211.00" xmlns="http://www.w3.org/2000/svg" xmlns:xlink="http://www.w3.org/1999/xlink">
<g id="graph0" class="graph" transform="scale(1 1) rotate(0) translate(4 207)">
<title>dependencies</title>
<polygon fill="white" stroke="transparent" points="-4,4 -4,-207 630,-207 630,4 -4,4"/>
<text text-anchor="start" x="292.01" y="-42.4" font-family="sans-serif" font-weight="bold" font-size="14.00">Legend</text>
<polygon fill="#ffffb3" stroke="transparent" points="79,-10 79,-30 99,-30 99,-10 79,-10"/>
<text text-anchor="start" x="102.63" y="-15.4" font-family="sans-serif" font-size="14.00"> &#160;Declarations</text>
<polygon fill="#8dd3c7" stroke="transparent" points="192,-10 192,-30 212,-30 212,-10 192,-10"/>
<text text-anchor="start" x="215.73" y="-15.4" font-family="sans-serif" font-size="14.00"> &#160;Module</text>
<polygon fill="#80b1d3" stroke="transparent" points="278,-10 278,-30 298,-30 298,-10 278,-10"/>
<text text-anchor="start" x="301.78" y="-15.4" font-family="sans-serif" font-size="14.00"> &#160;Bootstrap</text>
<polygon fill="#fdb462" stroke="transparent" points="375,-10 375,-30 395,-30 395,-10 375,-10"/>
<text text-anchor="start" x="398.67" y="-15.4" font-family="sans-serif" font-size="14.00"> &#160;Providers</text>
<polygon fill="#fb8072" stroke="transparent" points="471,-10 471,-30 491,-30 491,-10 471,-10"/>
<text text-anchor="start" x="494.73" y="-15.4" font-family="sans-serif" font-size="14.00"> &#160;Exports</text>
<g id="clust1" class="cluster">
<title>cluster_CartLayoutModule</title>
<polygon fill="none" stroke="black" stroke-dasharray="1,5" points="8,-70 8,-195 618,-195 618,-70 8,-70"/>
</g>
<g id="clust5" class="cluster">
<title>cluster_CartLayoutModule_imports</title>
<polygon fill="none" stroke="black" points="324,-78 324,-130 610,-130 610,-78 324,-78"/>
</g>
<g id="clust2" class="cluster">
<title>cluster_CartLayoutModule_declarations</title>
<polygon fill="none" stroke="black" points="16,-78 16,-130 316,-130 316,-78 16,-78"/>
</g>
<!-- CheckoutComponent -->
<g id="node1" class="node">
<title>CheckoutComponent</title>
<polygon fill="#ffffb3" stroke="black" points="308.49,-122 173.51,-122 173.51,-86 308.49,-86 308.49,-122"/>
<text text-anchor="middle" x="241" y="-99.8" font-family="Times,serif" font-size="14.00">CheckoutComponent</text>
</g>
<!-- CartLayoutModule -->
<g id="node3" class="node">
<title>CartLayoutModule</title>
<polygon fill="#8dd3c7" stroke="black" points="386.81,-187 383.81,-191 362.81,-191 359.81,-187 263.19,-187 263.19,-151 386.81,-151 386.81,-187"/>
<text text-anchor="middle" x="325" y="-164.8" font-family="Times,serif" font-size="14.00">CartLayoutModule</text>
</g>
<!-- CheckoutComponent&#45;&gt;CartLayoutModule -->
<g id="edge1" class="edge">
<title>CheckoutComponent&#45;&gt;CartLayoutModule</title>
<path fill="none" stroke="black" d="M285.92,-122.11C285.92,-122.11 285.92,-140.99 285.92,-140.99"/>
<polygon fill="black" stroke="black" points="282.42,-140.99 285.92,-150.99 289.42,-140.99 282.42,-140.99"/>
</g>
<!-- UserCartComponent -->
<g id="node2" class="node">
<title>UserCartComponent</title>
<polygon fill="#ffffb3" stroke="black" points="155.86,-122 24.14,-122 24.14,-86 155.86,-86 155.86,-122"/>
<text text-anchor="middle" x="90" y="-99.8" font-family="Times,serif" font-size="14.00">UserCartComponent</text>
</g>
<!-- UserCartComponent&#45;&gt;CartLayoutModule -->
<g id="edge2" class="edge">
<title>UserCartComponent&#45;&gt;CartLayoutModule</title>
<path fill="none" stroke="black" d="M90,-122.11C90,-141.34 90,-169 90,-169 90,-169 253.26,-169 253.26,-169"/>
<polygon fill="black" stroke="black" points="253.26,-172.5 263.26,-169 253.26,-165.5 253.26,-172.5"/>
</g>
<!-- SharedModule -->
<g id="node4" class="node">
<title>SharedModule</title>
<polygon fill="#8dd3c7" stroke="black" points="602.42,-122 599.42,-126 578.42,-126 575.42,-122 503.58,-122 503.58,-86 602.42,-86 602.42,-122"/>
<text text-anchor="middle" x="553" y="-99.8" font-family="Times,serif" font-size="14.00">SharedModule</text>
</g>
<!-- SharedModule&#45;&gt;CartLayoutModule -->
<g id="edge3" class="edge">
<title>SharedModule&#45;&gt;CartLayoutModule</title>
<path fill="none" stroke="black" d="M553,-122.11C553,-141.34 553,-169 553,-169 553,-169 396.7,-169 396.7,-169"/>
<polygon fill="black" stroke="black" points="396.7,-165.5 386.7,-169 396.7,-172.5 396.7,-165.5"/>
</g>
<!-- StripeIntegrationModule -->
<g id="node5" class="node">
<title>StripeIntegrationModule</title>
<polygon fill="#8dd3c7" stroke="black" points="486.41,-122 483.41,-126 462.41,-126 459.41,-122 331.59,-122 331.59,-86 486.41,-86 486.41,-122"/>
<text text-anchor="middle" x="409" y="-99.8" font-family="Times,serif" font-size="14.00">StripeIntegrationModule</text>
</g>
<!-- StripeIntegrationModule&#45;&gt;CartLayoutModule -->
<g id="edge4" class="edge">
<title>StripeIntegrationModule&#45;&gt;CartLayoutModule</title>
<path fill="none" stroke="black" d="M359.22,-122.11C359.22,-122.11 359.22,-140.99 359.22,-140.99"/>
<polygon fill="black" stroke="black" points="355.72,-140.99 359.22,-150.99 362.72,-140.99 355.72,-140.99"/>
</g>
</g>
</svg>
