<?xml version="1.0" encoding="UTF-8" standalone="no"?>
<!DOCTYPE svg PUBLIC "-//W3C//DTD SVG 1.1//EN"
 "http://www.w3.org/Graphics/SVG/1.1/DTD/svg11.dtd">
<!-- Generated by graphviz version 2.44.1 (20200629.0846)
 -->
<!-- Title: dependencies Pages: 1 -->
<svg width="504pt" height="211pt"
 viewBox="0.00 0.00 504.00 211.00" xmlns="http://www.w3.org/2000/svg" xmlns:xlink="http://www.w3.org/1999/xlink">
<g id="graph0" class="graph" transform="scale(1 1) rotate(0) translate(4 207)">
<title>dependencies</title>
<polygon fill="white" stroke="transparent" points="-4,4 -4,-207 500,-207 500,4 -4,4"/>
<text text-anchor="start" x="227.01" y="-42.4" font-family="sans-serif" font-weight="bold" font-size="14.00">Legend</text>
<polygon fill="#ffffb3" stroke="transparent" points="14,-10 14,-30 34,-30 34,-10 14,-10"/>
<text text-anchor="start" x="37.63" y="-15.4" font-family="sans-serif" font-size="14.00"> &#160;Declarations</text>
<polygon fill="#8dd3c7" stroke="transparent" points="127,-10 127,-30 147,-30 147,-10 127,-10"/>
<text text-anchor="start" x="150.73" y="-15.4" font-family="sans-serif" font-size="14.00"> &#160;Module</text>
<polygon fill="#80b1d3" stroke="transparent" points="213,-10 213,-30 233,-30 233,-10 213,-10"/>
<text text-anchor="start" x="236.78" y="-15.4" font-family="sans-serif" font-size="14.00"> &#160;Bootstrap</text>
<polygon fill="#fdb462" stroke="transparent" points="310,-10 310,-30 330,-30 330,-10 310,-10"/>
<text text-anchor="start" x="333.67" y="-15.4" font-family="sans-serif" font-size="14.00"> &#160;Providers</text>
<polygon fill="#fb8072" stroke="transparent" points="406,-10 406,-30 426,-30 426,-10 406,-10"/>
<text text-anchor="start" x="429.73" y="-15.4" font-family="sans-serif" font-size="14.00"> &#160;Exports</text>
<g id="clust1" class="cluster">
<title>cluster_InvoiceLayoutModule</title>
<polygon fill="none" stroke="black" stroke-dasharray="1,5" points="107,-70 107,-195 389,-195 389,-70 107,-70"/>
</g>
<g id="clust4" class="cluster">
<title>cluster_InvoiceLayoutModule_imports</title>
<polygon fill="none" stroke="black" points="267,-78 267,-130 381,-130 381,-78 267,-78"/>
</g>
<g id="clust2" class="cluster">
<title>cluster_InvoiceLayoutModule_declarations</title>
<polygon fill="none" stroke="black" points="115,-78 115,-130 259,-130 259,-78 115,-78"/>
</g>
<!-- InvoicesComponent -->
<g id="node1" class="node">
<title>InvoicesComponent</title>
<polygon fill="#ffffb3" stroke="black" points="251.26,-122 122.74,-122 122.74,-86 251.26,-86 251.26,-122"/>
<text text-anchor="middle" x="187" y="-99.8" font-family="Times,serif" font-size="14.00">InvoicesComponent</text>
</g>
<!-- InvoiceLayoutModule -->
<g id="node2" class="node">
<title>InvoiceLayoutModule</title>
<polygon fill="#8dd3c7" stroke="black" points="318.69,-187 315.69,-191 294.69,-191 291.69,-187 177.31,-187 177.31,-151 318.69,-151 318.69,-187"/>
<text text-anchor="middle" x="248" y="-164.8" font-family="Times,serif" font-size="14.00">InvoiceLayoutModule</text>
</g>
<!-- InvoicesComponent&#45;&gt;InvoiceLayoutModule -->
<g id="edge1" class="edge">
<title>InvoicesComponent&#45;&gt;InvoiceLayoutModule</title>
<path fill="none" stroke="black" d="M214.39,-122.11C214.39,-122.11 214.39,-140.99 214.39,-140.99"/>
<polygon fill="black" stroke="black" points="210.89,-140.99 214.39,-150.99 217.89,-140.99 210.89,-140.99"/>
</g>
<!-- SharedModule -->
<g id="node3" class="node">
<title>SharedModule</title>
<polygon fill="#8dd3c7" stroke="black" points="373.42,-122 370.42,-126 349.42,-126 346.42,-122 274.58,-122 274.58,-86 373.42,-86 373.42,-122"/>
<text text-anchor="middle" x="324" y="-99.8" font-family="Times,serif" font-size="14.00">SharedModule</text>
</g>
<!-- SharedModule&#45;&gt;InvoiceLayoutModule -->
<g id="edge2" class="edge">
<title>SharedModule&#45;&gt;InvoiceLayoutModule</title>
<path fill="none" stroke="black" d="M296.69,-122.11C296.69,-122.11 296.69,-140.99 296.69,-140.99"/>
<polygon fill="black" stroke="black" points="293.19,-140.99 296.69,-150.99 300.19,-140.99 293.19,-140.99"/>
</g>
</g>
</svg>
