<?xml version="1.0" encoding="UTF-8" standalone="no"?>
<!DOCTYPE svg PUBLIC "-//W3C//DTD SVG 1.1//EN"
 "http://www.w3.org/Graphics/SVG/1.1/DTD/svg11.dtd">
<!-- Generated by graphviz version 2.44.1 (20200629.0846)
 -->
<!-- Title: dependencies Pages: 1 -->
<svg width="504pt" height="211pt"
 viewBox="0.00 0.00 504.00 211.00" xmlns="http://www.w3.org/2000/svg" xmlns:xlink="http://www.w3.org/1999/xlink">
<g id="graph0" class="graph" transform="scale(1 1) rotate(0) translate(4 207)">
<title>dependencies</title>
<polygon fill="white" stroke="transparent" points="-4,4 -4,-207 500,-207 500,4 -4,4"/>
<text text-anchor="start" x="227.01" y="-42.4" font-family="sans-serif" font-weight="bold" font-size="14.00">Legend</text>
<polygon fill="#ffffb3" stroke="transparent" points="14,-10 14,-30 34,-30 34,-10 14,-10"/>
<text text-anchor="start" x="37.63" y="-15.4" font-family="sans-serif" font-size="14.00"> &#160;Declarations</text>
<polygon fill="#8dd3c7" stroke="transparent" points="127,-10 127,-30 147,-30 147,-10 127,-10"/>
<text text-anchor="start" x="150.73" y="-15.4" font-family="sans-serif" font-size="14.00"> &#160;Module</text>
<polygon fill="#80b1d3" stroke="transparent" points="213,-10 213,-30 233,-30 233,-10 213,-10"/>
<text text-anchor="start" x="236.78" y="-15.4" font-family="sans-serif" font-size="14.00"> &#160;Bootstrap</text>
<polygon fill="#fdb462" stroke="transparent" points="310,-10 310,-30 330,-30 330,-10 310,-10"/>
<text text-anchor="start" x="333.67" y="-15.4" font-family="sans-serif" font-size="14.00"> &#160;Providers</text>
<polygon fill="#fb8072" stroke="transparent" points="406,-10 406,-30 426,-30 426,-10 406,-10"/>
<text text-anchor="start" x="429.73" y="-15.4" font-family="sans-serif" font-size="14.00"> &#160;Exports</text>
<g id="clust1" class="cluster">
<title>cluster_ChatbotModule</title>
<polygon fill="none" stroke="black" stroke-dasharray="1,5" points="129,-70 129,-195 367,-195 367,-70 129,-70"/>
</g>
<g id="clust2" class="cluster">
<title>cluster_ChatbotModule_declarations</title>
<polygon fill="none" stroke="black" points="137,-78 137,-130 359,-130 359,-78 137,-78"/>
</g>
<!-- ChatBot -->
<g id="node1" class="node">
<title>ChatBot</title>
<polygon fill="#ffffb3" stroke="black" points="351.17,-122 288.83,-122 288.83,-86 351.17,-86 351.17,-122"/>
<text text-anchor="middle" x="320" y="-99.8" font-family="Times,serif" font-size="14.00">ChatBot</text>
</g>
<!-- ChatbotModule -->
<g id="node3" class="node">
<title>ChatbotModule</title>
<polygon fill="#8dd3c7" stroke="black" points="308.88,-187 305.88,-191 284.88,-191 281.88,-187 205.12,-187 205.12,-151 308.88,-151 308.88,-187"/>
<text text-anchor="middle" x="257" y="-164.8" font-family="Times,serif" font-size="14.00">ChatbotModule</text>
</g>
<!-- ChatBot&#45;&gt;ChatbotModule -->
<g id="edge1" class="edge">
<title>ChatBot&#45;&gt;ChatbotModule</title>
<path fill="none" stroke="black" d="M298.8,-122.11C298.8,-122.11 298.8,-140.99 298.8,-140.99"/>
<polygon fill="black" stroke="black" points="295.3,-140.99 298.8,-150.99 302.3,-140.99 295.3,-140.99"/>
</g>
<!-- ChatbotComponent -->
<g id="node2" class="node">
<title>ChatbotComponent</title>
<polygon fill="#ffffb3" stroke="black" points="270.67,-122 145.33,-122 145.33,-86 270.67,-86 270.67,-122"/>
<text text-anchor="middle" x="208" y="-99.8" font-family="Times,serif" font-size="14.00">ChatbotComponent</text>
</g>
<!-- ChatbotComponent&#45;&gt;ChatbotModule -->
<g id="edge2" class="edge">
<title>ChatbotComponent&#45;&gt;ChatbotModule</title>
<path fill="none" stroke="black" d="M237.95,-122.11C237.95,-122.11 237.95,-140.99 237.95,-140.99"/>
<polygon fill="black" stroke="black" points="234.45,-140.99 237.95,-150.99 241.45,-140.99 234.45,-140.99"/>
</g>
</g>
</svg>
