<?xml version="1.0" encoding="UTF-8" standalone="no"?>
<!DOCTYPE svg PUBLIC "-//W3C//DTD SVG 1.1//EN"
 "http://www.w3.org/Graphics/SVG/1.1/DTD/svg11.dtd">
<!-- Generated by graphviz version 2.44.1 (20200629.0846)
 -->
<!-- Title: dependencies Pages: 1 -->
<svg width="504pt" height="211pt"
 viewBox="0.00 0.00 504.00 211.00" xmlns="http://www.w3.org/2000/svg" xmlns:xlink="http://www.w3.org/1999/xlink">
<g id="graph0" class="graph" transform="scale(1 1) rotate(0) translate(4 207)">
<title>dependencies</title>
<polygon fill="white" stroke="transparent" points="-4,4 -4,-207 500,-207 500,4 -4,4"/>
<text text-anchor="start" x="227.01" y="-42.4" font-family="sans-serif" font-weight="bold" font-size="14.00">Legend</text>
<polygon fill="#ffffb3" stroke="transparent" points="14,-10 14,-30 34,-30 34,-10 14,-10"/>
<text text-anchor="start" x="37.63" y="-15.4" font-family="sans-serif" font-size="14.00"> &#160;Declarations</text>
<polygon fill="#8dd3c7" stroke="transparent" points="127,-10 127,-30 147,-30 147,-10 127,-10"/>
<text text-anchor="start" x="150.73" y="-15.4" font-family="sans-serif" font-size="14.00"> &#160;Module</text>
<polygon fill="#80b1d3" stroke="transparent" points="213,-10 213,-30 233,-30 233,-10 213,-10"/>
<text text-anchor="start" x="236.78" y="-15.4" font-family="sans-serif" font-size="14.00"> &#160;Bootstrap</text>
<polygon fill="#fdb462" stroke="transparent" points="310,-10 310,-30 330,-30 330,-10 310,-10"/>
<text text-anchor="start" x="333.67" y="-15.4" font-family="sans-serif" font-size="14.00"> &#160;Providers</text>
<polygon fill="#fb8072" stroke="transparent" points="406,-10 406,-30 426,-30 426,-10 406,-10"/>
<text text-anchor="start" x="429.73" y="-15.4" font-family="sans-serif" font-size="14.00"> &#160;Exports</text>
<g id="clust1" class="cluster">
<title>cluster_ShopLayoutModule</title>
<polygon fill="none" stroke="black" stroke-dasharray="1,5" points="116,-70 116,-195 380,-195 380,-70 116,-70"/>
</g>
<g id="clust2" class="cluster">
<title>cluster_ShopLayoutModule_declarations</title>
<polygon fill="none" stroke="black" points="246,-78 246,-130 372,-130 372,-78 246,-78"/>
</g>
<g id="clust4" class="cluster">
<title>cluster_ShopLayoutModule_imports</title>
<polygon fill="none" stroke="black" points="124,-78 124,-130 238,-130 238,-78 124,-78"/>
</g>
<!-- ShopComponent -->
<g id="node1" class="node">
<title>ShopComponent</title>
<polygon fill="#ffffb3" stroke="black" points="364.12,-122 253.88,-122 253.88,-86 364.12,-86 364.12,-122"/>
<text text-anchor="middle" x="309" y="-99.8" font-family="Times,serif" font-size="14.00">ShopComponent</text>
</g>
<!-- ShopLayoutModule -->
<g id="node2" class="node">
<title>ShopLayoutModule</title>
<polygon fill="#8dd3c7" stroke="black" points="311.99,-187 308.99,-191 287.99,-191 284.99,-187 184.01,-187 184.01,-151 311.99,-151 311.99,-187"/>
<text text-anchor="middle" x="248" y="-164.8" font-family="Times,serif" font-size="14.00">ShopLayoutModule</text>
</g>
<!-- ShopComponent&#45;&gt;ShopLayoutModule -->
<g id="edge1" class="edge">
<title>ShopComponent&#45;&gt;ShopLayoutModule</title>
<path fill="none" stroke="black" d="M282.97,-122.11C282.97,-122.11 282.97,-140.99 282.97,-140.99"/>
<polygon fill="black" stroke="black" points="279.47,-140.99 282.97,-150.99 286.47,-140.99 279.47,-140.99"/>
</g>
<!-- SharedModule -->
<g id="node3" class="node">
<title>SharedModule</title>
<polygon fill="#8dd3c7" stroke="black" points="230.42,-122 227.42,-126 206.42,-126 203.42,-122 131.58,-122 131.58,-86 230.42,-86 230.42,-122"/>
<text text-anchor="middle" x="181" y="-99.8" font-family="Times,serif" font-size="14.00">SharedModule</text>
</g>
<!-- SharedModule&#45;&gt;ShopLayoutModule -->
<g id="edge2" class="edge">
<title>SharedModule&#45;&gt;ShopLayoutModule</title>
<path fill="none" stroke="black" d="M207.11,-122.11C207.11,-122.11 207.11,-140.99 207.11,-140.99"/>
<polygon fill="black" stroke="black" points="203.61,-140.99 207.11,-150.99 210.61,-140.99 203.61,-140.99"/>
</g>
</g>
</svg>
