<?xml version="1.0" encoding="UTF-8" standalone="no"?>
<!DOCTYPE svg PUBLIC "-//W3C//DTD SVG 1.1//EN"
 "http://www.w3.org/Graphics/SVG/1.1/DTD/svg11.dtd">
<!-- Generated by graphviz version 2.44.1 (20200629.0846)
 -->
<!-- Title: dependencies Pages: 1 -->
<svg width="3172pt" height="284pt"
 viewBox="0.00 0.00 3172.00 284.00" xmlns="http://www.w3.org/2000/svg" xmlns:xlink="http://www.w3.org/1999/xlink">
<g id="graph0" class="graph" transform="scale(1 1) rotate(0) translate(4 280)">
<title>dependencies</title>
<polygon fill="white" stroke="transparent" points="-4,4 -4,-280 3168,-280 3168,4 -4,4"/>
<text text-anchor="start" x="1561.01" y="-42.4" font-family="sans-serif" font-weight="bold" font-size="14.00">Legend</text>
<polygon fill="#ffffb3" stroke="transparent" points="1348,-10 1348,-30 1368,-30 1368,-10 1348,-10"/>
<text text-anchor="start" x="1371.63" y="-15.4" font-family="sans-serif" font-size="14.00"> &#160;Declarations</text>
<polygon fill="#8dd3c7" stroke="transparent" points="1461,-10 1461,-30 1481,-30 1481,-10 1461,-10"/>
<text text-anchor="start" x="1484.73" y="-15.4" font-family="sans-serif" font-size="14.00"> &#160;Module</text>
<polygon fill="#80b1d3" stroke="transparent" points="1547,-10 1547,-30 1567,-30 1567,-10 1547,-10"/>
<text text-anchor="start" x="1570.78" y="-15.4" font-family="sans-serif" font-size="14.00"> &#160;Bootstrap</text>
<polygon fill="#fdb462" stroke="transparent" points="1644,-10 1644,-30 1664,-30 1664,-10 1644,-10"/>
<text text-anchor="start" x="1667.67" y="-15.4" font-family="sans-serif" font-size="14.00"> &#160;Providers</text>
<polygon fill="#fb8072" stroke="transparent" points="1740,-10 1740,-30 1760,-30 1760,-10 1740,-10"/>
<text text-anchor="start" x="1763.73" y="-15.4" font-family="sans-serif" font-size="14.00"> &#160;Exports</text>
<g id="clust1" class="cluster">
<title>cluster_AppModule</title>
<polygon fill="none" stroke="black" stroke-dasharray="1,5" points="8,-70 8,-268 3156,-268 3156,-70 8,-70"/>
</g>
<g id="clust2" class="cluster">
<title>cluster_AppModule_declarations</title>
<polygon fill="none" stroke="black" points="803,-78 803,-130 3148,-130 3148,-78 803,-78"/>
</g>
<g id="clust19" class="cluster">
<title>cluster_AppModule_bootstrap</title>
<polygon fill="none" stroke="black" points="1463,-208 1463,-260 1587,-260 1587,-208 1463,-208"/>
</g>
<g id="clust20" class="cluster">
<title>cluster_AppModule_providers</title>
<polygon fill="none" stroke="black" points="457,-78 457,-130 795,-130 795,-78 457,-78"/>
</g>
<g id="clust17" class="cluster">
<title>cluster_AppModule_imports</title>
<polygon fill="none" stroke="black" points="16,-78 16,-130 449,-130 449,-78 16,-78"/>
</g>
<!-- AppComponent -->
<g id="node1" class="node">
<title>AppComponent</title>
<polygon fill="#ffffb3" stroke="black" points="3139.94,-122 3034.06,-122 3034.06,-86 3139.94,-86 3139.94,-122"/>
<text text-anchor="middle" x="3087" y="-99.8" font-family="Times,serif" font-size="14.00">AppComponent</text>
</g>
<!-- AppModule -->
<g id="node15" class="node">
<title>AppModule</title>
<polygon fill="#8dd3c7" stroke="black" points="1566.66,-187 1563.66,-191 1542.66,-191 1539.66,-187 1483.34,-187 1483.34,-151 1566.66,-151 1566.66,-187"/>
<text text-anchor="middle" x="1525" y="-164.8" font-family="Times,serif" font-size="14.00">AppModule</text>
</g>
<!-- AppComponent&#45;&gt;AppModule -->
<g id="edge1" class="edge">
<title>AppComponent&#45;&gt;AppModule</title>
<path fill="none" stroke="black" d="M3087,-122.15C3087,-145.76 3087,-184 3087,-184 3087,-184 1576.78,-184 1576.78,-184"/>
<polygon fill="black" stroke="black" points="1576.78,-180.5 1566.78,-184 1576.78,-187.5 1576.78,-180.5"/>
</g>
<!-- AuthComponent -->
<g id="node2" class="node">
<title>AuthComponent</title>
<polygon fill="#ffffb3" stroke="black" points="3016.83,-122 2907.17,-122 2907.17,-86 3016.83,-86 3016.83,-122"/>
<text text-anchor="middle" x="2962" y="-99.8" font-family="Times,serif" font-size="14.00">AuthComponent</text>
</g>
<!-- AuthComponent&#45;&gt;AppModule -->
<g id="edge2" class="edge">
<title>AuthComponent&#45;&gt;AppModule</title>
<path fill="none" stroke="black" d="M2962,-122.01C2962,-144.49 2962,-180 2962,-180 2962,-180 1576.84,-180 1576.84,-180"/>
<polygon fill="black" stroke="black" points="1576.84,-176.5 1566.84,-180 1576.84,-183.5 1576.84,-176.5"/>
</g>
<!-- CartLayoutComponent -->
<g id="node3" class="node">
<title>CartLayoutComponent</title>
<polygon fill="#ffffb3" stroke="black" points="2889.59,-122 2744.41,-122 2744.41,-86 2889.59,-86 2889.59,-122"/>
<text text-anchor="middle" x="2817" y="-99.8" font-family="Times,serif" font-size="14.00">CartLayoutComponent</text>
</g>
<!-- CartLayoutComponent&#45;&gt;AppModule -->
<g id="edge3" class="edge">
<title>CartLayoutComponent&#45;&gt;AppModule</title>
<path fill="none" stroke="black" d="M2817,-122.04C2817,-143.66 2817,-177 2817,-177 2817,-177 1576.89,-177 1576.89,-177"/>
<polygon fill="black" stroke="black" points="1576.89,-173.5 1566.89,-177 1576.89,-180.5 1576.89,-173.5"/>
</g>
<!-- CategoryLayoutComponent -->
<g id="node4" class="node">
<title>CategoryLayoutComponent</title>
<polygon fill="#ffffb3" stroke="black" points="2726.31,-122 2553.69,-122 2553.69,-86 2726.31,-86 2726.31,-122"/>
<text text-anchor="middle" x="2640" y="-99.8" font-family="Times,serif" font-size="14.00">CategoryLayoutComponent</text>
</g>
<!-- CategoryLayoutComponent&#45;&gt;AppModule -->
<g id="edge4" class="edge">
<title>CategoryLayoutComponent&#45;&gt;AppModule</title>
<path fill="none" stroke="black" d="M2640,-122.13C2640,-142.57 2640,-173 2640,-173 2640,-173 1576.67,-173 1576.67,-173"/>
<polygon fill="black" stroke="black" points="1576.67,-169.5 1566.67,-173 1576.67,-176.5 1576.67,-169.5"/>
</g>
<!-- CommonLayoutComponent -->
<g id="node5" class="node">
<title>CommonLayoutComponent</title>
<polygon fill="#ffffb3" stroke="black" points="2535.61,-122 2362.39,-122 2362.39,-86 2535.61,-86 2535.61,-122"/>
<text text-anchor="middle" x="2449" y="-99.8" font-family="Times,serif" font-size="14.00">CommonLayoutComponent</text>
</g>
<!-- CommonLayoutComponent&#45;&gt;AppModule -->
<g id="edge5" class="edge">
<title>CommonLayoutComponent&#45;&gt;AppModule</title>
<path fill="none" stroke="black" d="M2449,-122.11C2449,-141.34 2449,-169 2449,-169 2449,-169 1576.8,-169 1576.8,-169"/>
<polygon fill="black" stroke="black" points="1576.8,-165.5 1566.8,-169 1576.8,-172.5 1576.8,-165.5"/>
</g>
<!-- DashboardComponent -->
<g id="node6" class="node">
<title>DashboardComponent</title>
<polygon fill="#ffffb3" stroke="black" points="2343.97,-122 2202.03,-122 2202.03,-86 2343.97,-86 2343.97,-122"/>
<text text-anchor="middle" x="2273" y="-99.8" font-family="Times,serif" font-size="14.00">DashboardComponent</text>
</g>
<!-- DashboardComponent&#45;&gt;AppModule -->
<g id="edge6" class="edge">
<title>DashboardComponent&#45;&gt;AppModule</title>
<path fill="none" stroke="black" d="M2273,-122.27C2273,-140.56 2273,-166 2273,-166 2273,-166 1576.82,-166 1576.82,-166"/>
<polygon fill="black" stroke="black" points="1576.82,-162.5 1566.82,-166 1576.82,-169.5 1576.82,-162.5"/>
</g>
<!-- ErrorComponent -->
<g id="node7" class="node">
<title>ErrorComponent</title>
<polygon fill="#ffffb3" stroke="black" points="2184.37,-122 2073.63,-122 2073.63,-86 2184.37,-86 2184.37,-122"/>
<text text-anchor="middle" x="2129" y="-99.8" font-family="Times,serif" font-size="14.00">ErrorComponent</text>
</g>
<!-- ErrorComponent&#45;&gt;AppModule -->
<g id="edge7" class="edge">
<title>ErrorComponent&#45;&gt;AppModule</title>
<path fill="none" stroke="black" d="M2129,-122.03C2129,-139.06 2129,-162 2129,-162 2129,-162 1576.99,-162 1576.99,-162"/>
<polygon fill="black" stroke="black" points="1576.99,-158.5 1566.99,-162 1576.99,-165.5 1576.99,-158.5"/>
</g>
<!-- InvoiceLayoutComponent -->
<g id="node8" class="node">
<title>InvoiceLayoutComponent</title>
<polygon fill="#ffffb3" stroke="black" points="2055.47,-122 1892.53,-122 1892.53,-86 2055.47,-86 2055.47,-122"/>
<text text-anchor="middle" x="1974" y="-99.8" font-family="Times,serif" font-size="14.00">InvoiceLayoutComponent</text>
</g>
<!-- InvoiceLayoutComponent&#45;&gt;AppModule -->
<g id="edge8" class="edge">
<title>InvoiceLayoutComponent&#45;&gt;AppModule</title>
<path fill="none" stroke="black" d="M1974,-122.01C1974,-138.05 1974,-159 1974,-159 1974,-159 1576.84,-159 1576.84,-159"/>
<polygon fill="black" stroke="black" points="1576.84,-155.5 1566.84,-159 1576.84,-162.5 1576.84,-155.5"/>
</g>
<!-- OrderLayoutComponent -->
<g id="node9" class="node">
<title>OrderLayoutComponent</title>
<polygon fill="#ffffb3" stroke="black" points="1874.63,-122 1721.37,-122 1721.37,-86 1874.63,-86 1874.63,-122"/>
<text text-anchor="middle" x="1798" y="-99.8" font-family="Times,serif" font-size="14.00">OrderLayoutComponent</text>
</g>
<!-- OrderLayoutComponent&#45;&gt;AppModule -->
<g id="edge9" class="edge">
<title>OrderLayoutComponent&#45;&gt;AppModule</title>
<path fill="none" stroke="black" d="M1798,-122.12C1798,-136.78 1798,-155 1798,-155 1798,-155 1576.76,-155 1576.76,-155"/>
<polygon fill="black" stroke="black" points="1576.76,-151.5 1566.76,-155 1576.76,-158.5 1576.76,-151.5"/>
</g>
<!-- PaymentLayoutComponent -->
<g id="node10" class="node">
<title>PaymentLayoutComponent</title>
<polygon fill="#ffffb3" stroke="black" points="1702.98,-122 1533.02,-122 1533.02,-86 1702.98,-86 1702.98,-122"/>
<text text-anchor="middle" x="1618" y="-99.8" font-family="Times,serif" font-size="14.00">PaymentLayoutComponent</text>
</g>
<!-- PaymentLayoutComponent&#45;&gt;AppModule -->
<g id="edge10" class="edge">
<title>PaymentLayoutComponent&#45;&gt;AppModule</title>
<path fill="none" stroke="black" d="M1549.92,-122.11C1549.92,-122.11 1549.92,-140.99 1549.92,-140.99"/>
<polygon fill="black" stroke="black" points="1546.42,-140.99 1549.92,-150.99 1553.42,-140.99 1546.42,-140.99"/>
</g>
<!-- ProductLayoutComponent -->
<g id="node11" class="node">
<title>ProductLayoutComponent</title>
<polygon fill="#ffffb3" stroke="black" points="1515.04,-122 1350.96,-122 1350.96,-86 1515.04,-86 1515.04,-122"/>
<text text-anchor="middle" x="1433" y="-99.8" font-family="Times,serif" font-size="14.00">ProductLayoutComponent</text>
</g>
<!-- ProductLayoutComponent&#45;&gt;AppModule -->
<g id="edge11" class="edge">
<title>ProductLayoutComponent&#45;&gt;AppModule</title>
<path fill="none" stroke="black" d="M1499.22,-122.11C1499.22,-122.11 1499.22,-140.99 1499.22,-140.99"/>
<polygon fill="black" stroke="black" points="1495.72,-140.99 1499.22,-150.99 1502.72,-140.99 1495.72,-140.99"/>
</g>
<!-- ShopLayoutComponent -->
<g id="node12" class="node">
<title>ShopLayoutComponent</title>
<polygon fill="#ffffb3" stroke="black" points="1332.77,-122 1183.23,-122 1183.23,-86 1332.77,-86 1332.77,-122"/>
<text text-anchor="middle" x="1258" y="-99.8" font-family="Times,serif" font-size="14.00">ShopLayoutComponent</text>
</g>
<!-- ShopLayoutComponent&#45;&gt;AppModule -->
<g id="edge12" class="edge">
<title>ShopLayoutComponent&#45;&gt;AppModule</title>
<path fill="none" stroke="black" d="M1258,-122.12C1258,-136.78 1258,-155 1258,-155 1258,-155 1473.28,-155 1473.28,-155"/>
<polygon fill="black" stroke="black" points="1473.28,-158.5 1483.28,-155 1473.28,-151.5 1473.28,-158.5"/>
</g>
<!-- SubCategoryLayoutComponent -->
<g id="node13" class="node">
<title>SubCategoryLayoutComponent</title>
<polygon fill="#ffffb3" stroke="black" points="1165.09,-122 970.91,-122 970.91,-86 1165.09,-86 1165.09,-122"/>
<text text-anchor="middle" x="1068" y="-99.8" font-family="Times,serif" font-size="14.00">SubCategoryLayoutComponent</text>
</g>
<!-- SubCategoryLayoutComponent&#45;&gt;AppModule -->
<g id="edge13" class="edge">
<title>SubCategoryLayoutComponent&#45;&gt;AppModule</title>
<path fill="none" stroke="black" d="M1068,-122.01C1068,-138.05 1068,-159 1068,-159 1068,-159 1473.23,-159 1473.23,-159"/>
<polygon fill="black" stroke="black" points="1473.23,-162.5 1483.23,-159 1473.23,-155.5 1473.23,-162.5"/>
</g>
<!-- TagLayoutComponent -->
<g id="node14" class="node">
<title>TagLayoutComponent</title>
<polygon fill="#ffffb3" stroke="black" points="953.26,-122 810.74,-122 810.74,-86 953.26,-86 953.26,-122"/>
<text text-anchor="middle" x="882" y="-99.8" font-family="Times,serif" font-size="14.00">TagLayoutComponent</text>
</g>
<!-- TagLayoutComponent&#45;&gt;AppModule -->
<g id="edge14" class="edge">
<title>TagLayoutComponent&#45;&gt;AppModule</title>
<path fill="none" stroke="black" d="M882,-122.03C882,-139.06 882,-162 882,-162 882,-162 1473.31,-162 1473.31,-162"/>
<polygon fill="black" stroke="black" points="1473.31,-165.5 1483.31,-162 1473.31,-158.5 1473.31,-165.5"/>
</g>
<!-- AppComponent  -->
<g id="node19" class="node">
<title>AppComponent </title>
<polygon fill="#80b1d3" stroke="black" points="1579.44,-252 1470.56,-252 1470.56,-216 1579.44,-216 1579.44,-252"/>
<text text-anchor="middle" x="1525" y="-229.8" font-family="Times,serif" font-size="14.00">AppComponent </text>
</g>
<!-- AppModule&#45;&gt;AppComponent  -->
<g id="edge19" class="edge">
<title>AppModule&#45;&gt;AppComponent </title>
<path fill="none" stroke="black" stroke-dasharray="1,5" d="M1525,-187.11C1525,-187.11 1525,-205.99 1525,-205.99"/>
<polygon fill="black" stroke="black" points="1521.5,-205.99 1525,-215.99 1528.5,-205.99 1521.5,-205.99"/>
</g>
<!-- AppRoutingModule -->
<g id="node16" class="node">
<title>AppRoutingModule</title>
<polygon fill="#8dd3c7" stroke="black" points="441.27,-122 438.27,-126 417.27,-126 414.27,-122 312.73,-122 312.73,-86 441.27,-86 441.27,-122"/>
<text text-anchor="middle" x="377" y="-99.8" font-family="Times,serif" font-size="14.00">AppRoutingModule</text>
</g>
<!-- AppRoutingModule&#45;&gt;AppModule -->
<g id="edge15" class="edge">
<title>AppRoutingModule&#45;&gt;AppModule</title>
<path fill="none" stroke="black" d="M398.46,-122.13C398.46,-142.57 398.46,-173 398.46,-173 398.46,-173 1473.23,-173 1473.23,-173"/>
<polygon fill="black" stroke="black" points="1473.23,-176.5 1483.23,-173 1473.23,-169.5 1473.23,-176.5"/>
</g>
<!-- AppRoutingModule&#45;&gt;AppModule -->
<g id="edge16" class="edge">
<title>AppRoutingModule&#45;&gt;AppModule</title>
<path fill="none" stroke="black" d="M355.54,-122.04C355.54,-143.66 355.54,-177 355.54,-177 355.54,-177 1473.03,-177 1473.03,-177"/>
<polygon fill="black" stroke="black" points="1473.03,-180.5 1483.03,-177 1473.03,-173.5 1473.03,-180.5"/>
</g>
<!-- SharedModule -->
<g id="node17" class="node">
<title>SharedModule</title>
<polygon fill="#8dd3c7" stroke="black" points="294.42,-122 291.42,-126 270.42,-126 267.42,-122 195.58,-122 195.58,-86 294.42,-86 294.42,-122"/>
<text text-anchor="middle" x="245" y="-99.8" font-family="Times,serif" font-size="14.00">SharedModule</text>
</g>
<!-- SharedModule&#45;&gt;AppModule -->
<g id="edge17" class="edge">
<title>SharedModule&#45;&gt;AppModule</title>
<path fill="none" stroke="black" d="M245,-122.01C245,-144.49 245,-180 245,-180 245,-180 1473.14,-180 1473.14,-180"/>
<polygon fill="black" stroke="black" points="1473.14,-183.5 1483.14,-180 1473.14,-176.5 1473.14,-183.5"/>
</g>
<!-- StripeIntegrationModule -->
<g id="node18" class="node">
<title>StripeIntegrationModule</title>
<polygon fill="#8dd3c7" stroke="black" points="178.41,-122 175.41,-126 154.41,-126 151.41,-122 23.59,-122 23.59,-86 178.41,-86 178.41,-122"/>
<text text-anchor="middle" x="101" y="-99.8" font-family="Times,serif" font-size="14.00">StripeIntegrationModule</text>
</g>
<!-- StripeIntegrationModule&#45;&gt;AppModule -->
<g id="edge18" class="edge">
<title>StripeIntegrationModule&#45;&gt;AppModule</title>
<path fill="none" stroke="black" d="M101,-122.15C101,-145.76 101,-184 101,-184 101,-184 1473.15,-184 1473.15,-184"/>
<polygon fill="black" stroke="black" points="1473.15,-187.5 1483.15,-184 1473.15,-180.5 1473.15,-187.5"/>
</g>
<!-- ErrorInterceptor -->
<g id="node20" class="node">
<title>ErrorInterceptor</title>
<ellipse fill="#fdb462" stroke="black" cx="713" cy="-104" rx="73.53" ry="18"/>
<text text-anchor="middle" x="713" y="-99.8" font-family="Times,serif" font-size="14.00">ErrorInterceptor</text>
</g>
<!-- ErrorInterceptor&#45;&gt;AppModule -->
<g id="edge20" class="edge">
<title>ErrorInterceptor&#45;&gt;AppModule</title>
<path fill="none" stroke="black" d="M713,-122.27C713,-140.56 713,-166 713,-166 713,-166 1473.34,-166 1473.34,-166"/>
<polygon fill="black" stroke="black" points="1473.34,-169.5 1483.34,-166 1473.34,-162.5 1473.34,-169.5"/>
</g>
<!-- TokenInterceptor -->
<g id="node21" class="node">
<title>TokenInterceptor</title>
<ellipse fill="#fdb462" stroke="black" cx="543" cy="-104" rx="78.13" ry="18"/>
<text text-anchor="middle" x="543" y="-99.8" font-family="Times,serif" font-size="14.00">TokenInterceptor</text>
</g>
<!-- TokenInterceptor&#45;&gt;AppModule -->
<g id="edge21" class="edge">
<title>TokenInterceptor&#45;&gt;AppModule</title>
<path fill="none" stroke="black" d="M543,-122.11C543,-141.34 543,-169 543,-169 543,-169 1473.12,-169 1473.12,-169"/>
<polygon fill="black" stroke="black" points="1473.12,-172.5 1483.12,-169 1473.12,-165.5 1473.12,-172.5"/>
</g>
</g>
</svg>
