<?xml version="1.0" encoding="UTF-8" standalone="no"?>
<!DOCTYPE svg PUBLIC "-//W3C//DTD SVG 1.1//EN"
 "http://www.w3.org/Graphics/SVG/1.1/DTD/svg11.dtd">
<!-- Generated by graphviz version 2.44.1 (20200629.0846)
 -->
<!-- Title: dependencies Pages: 1 -->
<svg width="504pt" height="211pt"
 viewBox="0.00 0.00 504.00 211.00" xmlns="http://www.w3.org/2000/svg" xmlns:xlink="http://www.w3.org/1999/xlink">
<g id="graph0" class="graph" transform="scale(1 1) rotate(0) translate(4 207)">
<title>dependencies</title>
<polygon fill="white" stroke="transparent" points="-4,4 -4,-207 500,-207 500,4 -4,4"/>
<text text-anchor="start" x="227.01" y="-42.4" font-family="sans-serif" font-weight="bold" font-size="14.00">Legend</text>
<polygon fill="#ffffb3" stroke="transparent" points="14,-10 14,-30 34,-30 34,-10 14,-10"/>
<text text-anchor="start" x="37.63" y="-15.4" font-family="sans-serif" font-size="14.00"> &#160;Declarations</text>
<polygon fill="#8dd3c7" stroke="transparent" points="127,-10 127,-30 147,-30 147,-10 127,-10"/>
<text text-anchor="start" x="150.73" y="-15.4" font-family="sans-serif" font-size="14.00"> &#160;Module</text>
<polygon fill="#80b1d3" stroke="transparent" points="213,-10 213,-30 233,-30 233,-10 213,-10"/>
<text text-anchor="start" x="236.78" y="-15.4" font-family="sans-serif" font-size="14.00"> &#160;Bootstrap</text>
<polygon fill="#fdb462" stroke="transparent" points="310,-10 310,-30 330,-30 330,-10 310,-10"/>
<text text-anchor="start" x="333.67" y="-15.4" font-family="sans-serif" font-size="14.00"> &#160;Providers</text>
<polygon fill="#fb8072" stroke="transparent" points="406,-10 406,-30 426,-30 426,-10 406,-10"/>
<text text-anchor="start" x="429.73" y="-15.4" font-family="sans-serif" font-size="14.00"> &#160;Exports</text>
<g id="clust1" class="cluster">
<title>cluster_ProductLayoutModule</title>
<polygon fill="none" stroke="black" stroke-dasharray="1,5" points="89,-70 89,-195 407,-195 407,-70 89,-70"/>
</g>
<g id="clust2" class="cluster">
<title>cluster_ProductLayoutModule_declarations</title>
<polygon fill="none" stroke="black" points="219,-78 219,-130 399,-130 399,-78 219,-78"/>
</g>
<g id="clust4" class="cluster">
<title>cluster_ProductLayoutModule_imports</title>
<polygon fill="none" stroke="black" points="97,-78 97,-130 211,-130 211,-78 97,-78"/>
</g>
<!-- ProductDetailsComponent -->
<g id="node1" class="node">
<title>ProductDetailsComponent</title>
<polygon fill="#ffffb3" stroke="black" points="391.03,-122 226.97,-122 226.97,-86 391.03,-86 391.03,-122"/>
<text text-anchor="middle" x="309" y="-99.8" font-family="Times,serif" font-size="14.00">ProductDetailsComponent</text>
</g>
<!-- ProductLayoutModule -->
<g id="node2" class="node">
<title>ProductLayoutModule</title>
<polygon fill="#8dd3c7" stroke="black" points="309.26,-187 306.26,-191 285.26,-191 282.26,-187 166.74,-187 166.74,-151 309.26,-151 309.26,-187"/>
<text text-anchor="middle" x="238" y="-164.8" font-family="Times,serif" font-size="14.00">ProductLayoutModule</text>
</g>
<!-- ProductDetailsComponent&#45;&gt;ProductLayoutModule -->
<g id="edge1" class="edge">
<title>ProductDetailsComponent&#45;&gt;ProductLayoutModule</title>
<path fill="none" stroke="black" d="M268.06,-122.11C268.06,-122.11 268.06,-140.99 268.06,-140.99"/>
<polygon fill="black" stroke="black" points="264.56,-140.99 268.06,-150.99 271.56,-140.99 264.56,-140.99"/>
</g>
<!-- SharedModule -->
<g id="node3" class="node">
<title>SharedModule</title>
<polygon fill="#8dd3c7" stroke="black" points="203.42,-122 200.42,-126 179.42,-126 176.42,-122 104.58,-122 104.58,-86 203.42,-86 203.42,-122"/>
<text text-anchor="middle" x="154" y="-99.8" font-family="Times,serif" font-size="14.00">SharedModule</text>
</g>
<!-- SharedModule&#45;&gt;ProductLayoutModule -->
<g id="edge2" class="edge">
<title>SharedModule&#45;&gt;ProductLayoutModule</title>
<path fill="none" stroke="black" d="M184.92,-122.11C184.92,-122.11 184.92,-140.99 184.92,-140.99"/>
<polygon fill="black" stroke="black" points="181.42,-140.99 184.92,-150.99 188.42,-140.99 181.42,-140.99"/>
</g>
</g>
</svg>
